<svg width="147" height="109" viewBox="0 0 147 109" fill="none" xmlns="http://www.w3.org/2000/svg">
<path d="M21.9694 79.668C21.7263 79.8098 20.8753 80.068 20.4476 80.768C19.963 81.3881 19.9017 82.4579 19.9341 82.4362C19.9792 82.4819 19.3275 81.4075 19.3557 80.2579C19.2951 79.109 19.915 77.8858 20.4617 77.6587C21.4734 77.0292 22.7675 77.5912 22.8739 78.209C22.9958 78.8323 22.4766 79.3199 21.9694 79.668Z" fill="#3C8F7C"/>
<path d="M11.3112 72.8393C11.4246 72.7355 11.7127 72.3543 12.1221 72.2087C12.506 72.0297 13.0111 72.0878 12.9949 72.101C13.0069 72.1266 12.6427 71.7307 12.1023 71.6501C11.5838 71.5285 10.8948 71.7222 10.6813 71.96C10.1882 72.3869 10.1917 73.0447 10.4566 73.1454C10.7215 73.2461 11.0491 73.0516 11.3112 72.8393Z" fill="#3C8F7C"/>
<path d="M12.405 70.1641C12.3993 70.3269 12.3007 70.8114 12.4451 71.2563C12.5515 71.7005 12.9009 72.1091 12.9009 72.0827C12.9263 72.078 12.4177 71.9998 12.0316 71.5804C11.6272 71.2029 11.3461 70.4835 11.3891 70.1509C11.3968 69.461 11.8717 69.0656 12.1063 69.2307C12.3409 69.3959 12.3972 69.8083 12.405 70.1641Z" fill="#3C8F7C"/>
<path d="M44.87 0.335815H114.008C114.414 0.335815 114.802 0.513044 115.089 0.828513C115.376 1.14398 115.537 1.57185 115.537 2.01799V106.98C115.537 107.426 115.375 107.854 115.089 108.169C114.802 108.484 114.413 108.662 114.008 108.662H44.8693C44.4639 108.662 44.0752 108.484 43.7886 108.169C43.502 107.854 43.3409 107.426 43.3407 106.98V2.01799C43.3409 1.57178 43.5021 1.14391 43.7889 0.828466C44.0756 0.513019 44.4645 0.335815 44.87 0.335815Z" fill="#D3D7E3"/>
<path d="M44.6911 0.335815H114.186C114.544 0.335815 114.888 0.492382 115.141 0.771072C115.394 1.04976 115.537 1.42774 115.537 1.82187V22.877H43.3407V1.82187C43.3407 1.42774 43.483 1.04976 43.7362 0.771072C43.9895 0.492382 44.3329 0.335815 44.6911 0.335815Z" fill="#F47458"/>
<path opacity="0.71" d="M66.7651 30.8883L46.4729 30.8494L46.4401 51.5355L66.7323 51.5744L66.7651 30.8883Z" fill="white"/>
<path opacity="0.71" d="M89.6754 30.9524L69.3832 30.9095L69.3471 51.5956L89.6393 51.6385L89.6754 30.9524Z" fill="white"/>
<path opacity="0.71" d="M112.603 30.9771L92.3099 30.9381L92.2771 51.6243L112.57 51.6632L112.603 30.9771Z" fill="white"/>
<path opacity="0.71" d="M66.7154 55.0707L46.4225 55.0278L46.3864 75.714L66.6793 75.7568L66.7154 55.0707Z" fill="white"/>
<path opacity="0.71" d="M89.6464 55.099L69.3535 55.0601L69.3207 75.7462L89.6136 75.7851L89.6464 55.099Z" fill="white"/>
<path opacity="0.71" d="M112.552 55.1675L92.2594 55.1246L92.2233 75.8108L112.516 75.8536L112.552 55.1675Z" fill="white"/>
<path opacity="0.71" d="M66.6741 79.2359L46.3818 79.193L46.3457 99.8791L66.638 99.922L66.6741 79.2359Z" fill="white"/>
<path opacity="0.71" d="M89.6092 79.2641L69.3163 79.2251L69.2835 99.9112L89.5764 99.9501L89.6092 79.2641Z" fill="white"/>
<path opacity="0.71" d="M112.527 79.308L92.2343 79.269L92.2014 99.9552L112.494 99.9942L112.527 79.308Z" fill="white"/>
<path d="M63.0074 35.8763L61.3471 34.0259L56.5929 39.1918L51.8395 34.0259L50.1792 35.8763L54.9115 41.0189L50.1792 46.1616L51.8388 48.0112L56.5929 42.8461L61.3471 48.012L63.0067 46.1616L58.2744 41.0189L63.0074 35.8763Z" fill="#F47458"/>
<path d="M109.554 36.0538L107.894 34.2034L103.14 39.3686L98.3866 34.2026L96.7263 36.053L101.459 41.1957L96.7263 46.3384L98.3859 48.1887L103.14 43.0228L107.893 48.1887L109.554 46.3384L104.822 41.1957L109.554 36.0538Z" fill="#F47458"/>
<path d="M109.239 83.975L107.579 82.1246L102.825 87.2905L98.0717 82.1246L96.4114 83.9743L101.144 89.1169L96.4114 94.2596L98.071 96.11L102.825 90.9441L107.578 96.11L109.239 94.2603L104.507 89.1169L109.239 83.975Z" fill="#F47458"/>
<path opacity="0.8" d="M61.1859 9.72657L47.585 9.69867C47.4752 9.69867 47.3665 9.67486 47.2651 9.62861C47.1637 9.58236 47.0715 9.51457 46.994 9.42911C46.9164 9.34366 46.8548 9.24221 46.8129 9.13058C46.771 9.01894 46.7494 8.89931 46.7495 8.77851L46.7537 6.59323C46.754 6.47216 46.776 6.35235 46.8185 6.24067C46.8609 6.12899 46.923 6.02764 47.0012 5.94243C47.0793 5.85722 47.172 5.78984 47.2739 5.74414C47.3757 5.69845 47.4848 5.67535 47.5948 5.67617L61.1958 5.7033C61.3055 5.7035 61.4141 5.72749 61.5153 5.77389C61.6166 5.82029 61.7085 5.8882 61.7859 5.97373C61.8633 6.05925 61.9246 6.16072 61.9663 6.27234C62.0081 6.38396 62.0294 6.50354 62.0291 6.62424V8.80952C62.029 8.93081 62.007 9.05085 61.9644 9.16274C61.9218 9.27462 61.8596 9.37612 61.7812 9.46138C61.7028 9.54664 61.6098 9.61397 61.5077 9.65948C61.4055 9.705 61.2962 9.7278 61.1859 9.72657Z" fill="white"/>
<path opacity="0.8" d="M110.435 9.82581L65.9435 9.73666C65.8338 9.73645 65.7252 9.71247 65.6239 9.66608C65.5226 9.61969 65.4306 9.5518 65.3532 9.46628C65.2757 9.38076 65.2144 9.2793 65.1726 9.16768C65.1307 9.05605 65.1093 8.93646 65.1095 8.81572L65.1137 6.63044C65.1138 6.50978 65.1355 6.39032 65.1776 6.2789C65.2197 6.16748 65.2813 6.06629 65.359 5.98111C65.4367 5.89594 65.5288 5.82845 65.6302 5.78251C65.7316 5.73657 65.8402 5.71308 65.9499 5.71338L110.442 5.80253C110.663 5.80396 110.874 5.90165 111.03 6.07422C111.186 6.2468 111.273 6.48023 111.273 6.72346V8.90875C111.273 9.02951 111.251 9.14905 111.209 9.26052C111.167 9.372 111.105 9.47322 111.027 9.5584C110.949 9.64358 110.857 9.71104 110.755 9.75692C110.654 9.80281 110.545 9.82622 110.435 9.82581Z" fill="white"/>
<path opacity="0.8" d="M110.218 19.4304L47.8588 19.3041C47.7096 19.3039 47.562 19.2713 47.4243 19.2083C47.2866 19.1452 47.1615 19.0529 47.0562 18.9366C46.951 18.8204 46.8676 18.6824 46.8108 18.5306C46.754 18.3788 46.725 18.2162 46.7253 18.0521L46.7303 15.0808C46.7306 14.9167 46.7602 14.7543 46.8175 14.6028C46.8748 14.4513 46.9587 14.3137 47.0644 14.1979C47.17 14.082 47.2953 13.9902 47.4332 13.9277C47.5711 13.8652 47.7188 13.8332 47.8679 13.8335L110.225 13.9622C110.374 13.9624 110.522 13.9949 110.66 14.058C110.798 14.121 110.923 14.2133 111.028 14.3296C111.133 14.4458 111.217 14.5838 111.274 14.7356C111.331 14.8873 111.36 15.05 111.359 15.2141L111.354 18.1854C111.353 18.5163 111.233 18.833 111.02 19.0664C110.807 19.2997 110.518 19.4306 110.218 19.4304Z" fill="white"/>
<path d="M25.4651 50.5701C25.923 50.16 29.4634 51.8701 29.4191 52.4655C29.3747 53.0608 31.8866 58.8307 31.8866 58.8307L36.2343 55.0159C36.2731 54.8779 36.6851 53.3942 36.7049 53.1291C36.726 52.8508 37.4607 52.3632 37.8017 52.4314C38.1426 52.4996 37.51 52.974 37.4685 53.0601C37.3558 53.2926 37.7925 53.3841 37.7925 53.3841C37.7925 53.3841 39.0492 52.6252 39.0752 52.1794C39.1013 51.7337 39.3612 50.798 39.6331 50.9934C39.774 51.0942 39.774 51.7577 39.7282 52.0725C39.8085 51.7151 39.9227 51.312 40.034 51.2717C40.2375 51.1988 40.3383 51.4833 40.3016 51.6228C40.265 51.7624 39.9367 53.2794 39.8367 53.4508C39.7367 53.6221 37.7108 55.4159 37.4185 55.8066C37.4185 55.8066 31.7958 62.8803 31.395 63.0656C31.0427 63.2276 29.791 60.7896 28.6076 59.1717C27.4241 57.5539 24.0345 51.85 25.4651 50.5701Z" fill="#F7A491"/>
<path d="M14.1207 102.587C14.1207 102.587 13.3457 103.416 13.3302 103.721C13.3147 104.026 13.2598 107.287 13.5768 107.592C13.8938 107.898 14.8195 108.112 14.5215 108.455C14.2961 108.714 12.5637 108.658 11.4161 108.589C11.0808 108.569 10.6602 105.626 10.5277 105.194C10.3347 104.566 9.86622 103.151 10.0416 102.713C10.1269 102.5 10.5348 102.062 11.1111 101.653C11.7162 101.222 12.296 100.264 12.296 100.264L14.1207 102.587Z" fill="#F48C7F"/>
<path d="M22.1228 104.518C22.1228 104.518 21.431 106.668 21.4303 106.674C21.3788 107.015 21.1766 107.856 21.1766 108.166C21.1766 109.328 25.9433 107.178 24.8753 106.663C24.7787 106.616 24.4751 106.243 24.4434 105.847C24.3941 105.238 24.845 104.473 24.845 104.473L22.1228 104.518Z" fill="#F7A491"/>
<path d="M29.6018 64.488C29.6018 64.488 29.9492 68.3423 29.9492 68.3997C29.9492 74.6338 31.0728 86.8106 30.8587 87.9827C30.338 90.8417 24.7295 105.425 24.7295 105.425L21.7002 105.026L25.6496 87.5657L24.1962 80.5377L22.1398 66.6462L29.6018 64.488Z" fill="#355389"/>
<path d="M19.4284 67.8966L18.8536 71.5494L17.2983 86.582L11.3727 101.274C11.3727 101.274 12.2067 103.412 13.4359 103.712L22.8688 88.6278L28.7268 69.3253L28.5211 65.0377L19.4284 67.8966Z" fill="#13375B"/>
<path d="M30.8093 55.3127L26.6063 55.7848C26.6063 55.7848 26.4139 51.9933 26.4139 50.1848C26.4139 47.991 26.5837 45.1646 26.8247 45.2236C27.5003 45.3941 28.4105 45.8042 28.9522 46.6236C30.8297 49.4608 30.8093 55.3127 30.8093 55.3127Z" fill="#CF5338"/>
<path d="M28.7437 49.798C28.8317 50.467 30.4469 68.6532 30.4469 68.6532C22.7983 72.7222 18.5718 69.3772 18.5718 69.3772C18.5718 69.3772 18.8219 56.6066 18.5218 54.8686C18.3232 53.719 18.0759 46.0771 18.7529 45.8631C19.6221 45.5879 20.6182 45.2965 21.7044 45.1724C22.6314 45.0662 26.2331 45.005 26.8769 45.243C26.8791 45.243 28.3738 46.9856 28.7437 49.798Z" fill="#F47458"/>
<path d="M11.148 101.632C11.148 101.632 12.929 107.15 13.6264 107.416C13.8117 107.488 14.7001 107.667 14.867 108.099C14.9178 108.229 14.867 108.664 14.867 108.664H11.155C11.155 108.664 10.6851 106.232 10.4998 105.164C10.4998 105.164 9.51707 102.554 9.62627 102.317C9.73546 102.08 11.148 101.632 11.148 101.632Z" fill="#184655"/>
<path d="M20.9045 108.55L21.4505 106.652C21.4505 106.652 22.5967 107.185 23.1702 107.097C23.7437 107.008 24.861 106.652 24.861 106.652C27.1492 107.481 29.0239 107.883 28.6829 108.55H20.9045Z" fill="#184655"/>
<path d="M31.398 63.0711C31.4387 63.0428 31.4773 63.0112 31.5136 62.9765C31.3776 61.1936 31.4022 59.4687 31.9102 58.885C31.8982 58.8571 31.7869 58.5966 31.6707 58.3276C31.0817 58.8284 30.802 60.1602 30.9119 62.3222C30.9295 62.4729 30.9554 62.6223 30.9894 62.7695C31.1599 62.9757 31.3149 63.1098 31.398 63.0711Z" fill="#F7A491"/>
<path d="M42.5733 49.8345L49.509 38.2306L37.5979 42.8213L36.0116 47.874L42.5733 49.8345Z" fill="#F2E9DA"/>
<path d="M36.0116 47.8741L37.6994 48.3779L49.509 38.2306L37.5979 42.8213L36.0116 47.8741Z" fill="#E0D5C3"/>
<path d="M37.5987 42.8213L40.682 41.6329L39.002 44.7988L1.1626 77.3114L0.904785 74.3509L37.5987 42.8213Z" fill="#E8BA70"/>
<path d="M39.0024 44.7988L42.5259 44.2322L41.172 47.857L3.3334 80.3696L1.16309 77.3114L39.0024 44.7988Z" fill="#F7CC7F"/>
<path d="M41.1711 47.857L44.3692 46.8307L42.5736 49.8346L5.8797 81.3634L3.33252 80.3696L41.1711 47.857Z" fill="#FAE0B2"/>
<path d="M47.1552 42.1686L49.5089 38.2306L45.4666 39.7887L46.903 40.474L47.1552 42.1686Z" fill="#DB3F2A"/>
<path d="M10.995 68.8462C10.9908 68.8074 10.9908 68.7681 10.995 68.7292C11.1077 67.4703 12.0581 56.8942 12.218 56.4446C12.3625 56.0384 16.6247 49.3314 16.6247 49.3314L18.7199 52.4717L14.6204 58.4881C14.5288 58.8702 13.0501 66.0075 13.0501 66.0075C13.0501 66.0075 12.7464 67.309 12.6112 68.0889C12.6731 68.2765 12.7337 68.454 12.7873 68.5997C12.9109 68.8752 13.0589 69.1367 13.229 69.3803C13.4122 69.6509 13.7151 70.2408 13.7524 70.399C13.7961 70.5827 13.8743 70.9641 13.9187 71.1951C13.9631 71.4261 14.0237 71.6935 14.0335 71.8152C14.062 71.9336 14.1066 72.0465 14.166 72.1501C14.184 72.1854 14.192 72.2259 14.1888 72.2662C14.1856 72.3066 14.1715 72.3449 14.1482 72.3763C14.125 72.4077 14.0936 72.4306 14.0584 72.4421C14.0231 72.4536 13.9855 72.4532 13.9504 72.4408C13.801 72.3866 13.6855 72.1742 13.6137 72.0416C13.4122 71.6687 13.3044 70.9873 13.2544 71.0238C13.2043 71.0602 13.0275 72.2152 12.9993 72.3463C12.9711 72.4773 12.7598 73.8191 12.64 74.0641C12.5203 74.3091 12.3618 74.268 12.3202 74.1145C12.2843 73.9827 12.4519 72.1052 12.4519 72.1052C12.4519 72.1052 12.4731 71.8649 12.378 71.9401C12.2829 72.0152 12.1265 73.723 12.0602 73.9687C11.994 74.2145 11.8432 74.3509 11.7143 74.1501C11.5586 73.906 11.827 72.0982 11.827 72.0982C11.827 72.0982 11.8566 71.8711 11.7686 71.892C11.6805 71.9129 11.5699 73.3649 11.5016 73.492C11.4332 73.6191 11.2592 73.6625 11.1768 73.4532C11.0796 73.2059 11.3318 71.5928 11.3318 71.5928C11.3318 71.5928 11.3191 71.4648 11.2613 71.5075C11.2036 71.5501 11.0317 72.7804 10.9175 72.8951C10.9062 72.9082 10.8926 72.9185 10.8775 72.9257C10.8625 72.9328 10.8462 72.9364 10.8298 72.9364C10.8134 72.9364 10.7972 72.9328 10.7821 72.9257C10.767 72.9185 10.7534 72.9082 10.7421 72.8951C10.5308 72.74 10.8534 71.5672 10.8506 70.985C10.8478 70.4028 11.093 69.7447 11.0197 69.0555C11.0155 69.0199 11.0028 68.9129 10.995 68.8462Z" fill="#F8A492"/>
<path d="M13.2955 53.5788L16.9357 56.2687C16.9357 56.2687 18.9879 52.9082 20.0897 51.7121C21.4691 50.2136 19.5867 45.6237 18.6976 45.8826C16.7095 46.464 13.2955 53.5788 13.2955 53.5788Z" fill="#CF5338"/>
<path d="M22.7278 41.657L22.2346 45.2345C22.2346 45.2345 24.036 49.4981 25.1111 49.1245C26.0136 48.8144 25.4584 45.0454 25.4584 45.0454C25.4584 45.0454 24.9653 43.0213 25.1146 42.0089C25.264 40.9965 22.7278 41.657 22.7278 41.657Z" fill="#F7A491"/>
<path d="M25.1171 42.0089C25.265 40.9957 22.7289 41.6569 22.7289 41.6569L22.688 41.9538C22.7519 42.1366 22.8449 42.3054 22.9627 42.4523C23.5263 43.1228 24.4133 43.5251 25.1784 43.5554C25.103 43.0096 25.0537 42.4244 25.1171 42.0089Z" fill="#F47458"/>
<path d="M22.3139 36.598C22.2435 36.5693 21.7397 40.6716 22.6936 41.8011C23.6475 42.9305 25.5046 43.2995 26.171 42.4104C26.9079 41.4267 26.8706 37.0166 25.3883 35.8553C23.9061 34.6941 22.3139 36.598 22.3139 36.598Z" fill="#F7A491"/>
<path d="M24.8238 33.6592C23.9939 33.8556 23.2393 34.3291 22.6631 35.015C22.1432 35.0825 21.4359 35.4026 20.706 36.7298C19.8078 38.3654 20.4707 40.1779 21.5162 41.0662C22.5617 41.9546 22.5469 42.9825 22.5469 42.9825L22.7117 42.4515C22.8362 42.0496 22.8809 41.6229 22.8427 41.2003C22.8229 40.9412 22.7658 40.6871 22.6737 40.4476C22.4222 39.8538 23.214 39.46 23.4359 38.9654C23.6064 38.5848 23.6149 37.715 23.884 37.0864L24.2052 36.6057C24.2052 36.6057 24.9471 35.9709 25.6727 36.1499C26.3983 36.329 26.2941 33.3298 24.8238 33.6592Z" fill="#F7CC7F"/>
<path d="M23.3868 39.6982C23.3946 40.1987 23.1882 40.6085 22.9254 40.6132C22.6626 40.6178 22.4435 40.2165 22.4358 39.716C22.428 39.2156 22.6351 38.8065 22.8979 38.8011C23.1607 38.7957 23.3798 39.1946 23.3868 39.6982Z" fill="#F7A491"/>
<path d="M24.9368 40.8523L26.3739 40.7748C26.3739 40.7748 26.369 41.3768 25.7399 41.4325C24.9685 41.4968 24.9368 40.8523 24.9368 40.8523Z" fill="white"/>
<path d="M132.552 48.0283C132.146 47.6642 129.011 49.1828 129.05 49.7086C129.09 50.2344 126.862 55.3609 126.862 55.3609L123.012 51.9736C122.978 51.8511 122.613 50.5334 122.595 50.2975C122.576 50.0503 121.926 49.6176 121.623 49.6813C121.321 49.745 121.882 50.1637 121.919 50.2414C122.019 50.4515 121.632 50.5292 121.632 50.5292C121.632 50.5292 120.519 49.8557 120.496 49.4594C120.472 49.0631 120.241 48.2327 120.002 48.4092C119.878 48.4988 119.879 49.0876 119.918 49.3677C119.846 49.0498 119.745 48.692 119.646 48.6563C119.467 48.5912 119.377 48.8439 119.41 48.9679C119.442 49.0918 119.733 50.4382 119.822 50.5908C119.91 50.7435 121.704 52.3363 121.963 52.6829C121.963 52.6829 126.943 58.9646 127.297 59.1291C127.609 59.2734 128.718 57.1085 129.766 55.6711C130.814 54.2337 133.819 49.1653 132.552 48.0283Z" fill="#F7A491"/>
<path d="M142.6 94.2186C142.6 94.2186 143.284 94.9558 143.3 95.2261C143.316 95.4963 143.361 98.3935 143.081 98.6638C142.802 98.9341 141.981 99.1259 142.245 99.4298C142.445 99.6601 143.978 99.6104 144.995 99.5488C145.292 99.5313 145.664 96.9183 145.781 96.5339C145.952 95.9738 146.367 94.7199 146.213 94.3313C146.137 94.1422 145.775 93.753 145.265 93.3896C144.729 93.0073 144.216 92.1566 144.216 92.1566L142.6 94.2186Z" fill="#F48C7F"/>
<path d="M135.515 95.9346C135.515 95.9346 136.127 97.8433 136.128 97.8482C136.174 98.1506 136.353 98.8984 136.353 99.1728C136.353 100.206 132.132 98.2962 133.078 97.8383C133.163 97.797 133.432 97.4659 133.46 97.1144C133.503 96.5732 133.104 95.894 133.104 95.894L135.515 95.9346Z" fill="#F7A491"/>
<path d="M128.888 60.3873C128.888 60.3873 128.58 63.8097 128.58 63.8608C128.58 69.3969 127.585 80.21 127.775 81.2504C128.236 83.7892 133.202 96.7391 133.202 96.7391L135.886 96.3849L132.388 80.8807L133.675 74.6396L135.497 62.3036L128.888 60.3873Z" fill="#355389"/>
<path d="M137.895 63.4147L138.404 66.6578L139.782 80.0069L145.03 93.0535C145.03 93.0535 144.292 94.9516 143.202 95.2183L134.851 81.8238L129.664 64.6841L129.846 60.876L137.895 63.4147Z" fill="#5375B5"/>
<path d="M127.82 52.2397L131.541 52.6598C131.541 52.6598 131.712 49.2928 131.712 47.6887C131.712 45.7402 131.562 43.2309 131.348 43.2848C130.75 43.436 129.944 43.8008 129.464 44.5283C127.804 47.0432 127.82 52.2397 127.82 52.2397Z" fill="#2AA186"/>
<path d="M129.645 47.3428C129.568 47.9365 128.137 64.0862 128.137 64.0862C134.913 67.6976 138.652 64.7297 138.652 64.7297C138.652 64.7297 138.43 53.3872 138.696 51.8469C138.872 50.8254 139.091 44.0395 138.491 43.8498C137.722 43.6061 136.84 43.3471 135.878 43.2364C135.056 43.1426 131.867 43.088 131.297 43.2994C131.297 43.298 129.974 44.8447 129.645 47.3428Z" fill="#50BFA5"/>
<path d="M145.233 93.3713C145.233 93.3713 143.656 98.2724 143.038 98.5076C142.874 98.5707 142.087 98.7296 141.939 99.114C141.895 99.2295 141.939 99.6153 141.939 99.6153H145.226C145.226 99.6153 145.642 97.4567 145.807 96.508C145.807 96.508 146.677 94.1905 146.581 93.9798C146.484 93.769 145.233 93.3713 145.233 93.3713Z" fill="#184655"/>
<path d="M136.59 99.5138L136.106 97.8285C136.106 97.8285 135.091 98.3025 134.583 98.2234C134.075 98.1443 133.084 97.8285 133.084 97.8285C131.058 98.5644 129.398 98.9214 129.7 99.5138H136.59Z" fill="#184655"/>
<path d="M127.297 59.1292C127.262 59.104 127.228 59.076 127.196 59.0452C127.316 57.4629 127.294 55.9302 126.844 55.4114C126.855 55.3869 126.954 55.1559 127.056 54.9171C127.578 55.3617 127.825 56.5443 127.728 58.4641C127.713 58.5981 127.69 58.7309 127.659 58.8618C127.508 59.0452 127.371 59.1635 127.297 59.1292Z" fill="#F7A491"/>
<path d="M145.365 64.257C145.369 64.2226 145.369 64.1878 145.365 64.1534C145.265 63.0332 144.423 53.6435 144.283 53.2444C144.155 52.8838 140.38 46.9276 140.38 46.9276L138.526 49.7163L142.155 55.0585C142.236 55.398 143.546 61.7379 143.546 61.7379C143.546 61.7379 143.814 62.8931 143.934 63.5856C143.88 63.7522 143.826 63.9098 143.778 64.0393C143.669 64.2839 143.538 64.5161 143.387 64.7324C143.225 64.9726 142.956 65.497 142.923 65.637C142.885 65.8002 142.816 66.139 142.776 66.3435C142.737 66.5479 142.683 66.7867 142.674 66.8973C142.649 67.0025 142.61 67.1029 142.557 67.1949C142.541 67.2261 142.534 67.262 142.537 67.2977C142.54 67.3335 142.552 67.3675 142.573 67.3953C142.594 67.4231 142.621 67.4435 142.653 67.4537C142.684 67.4639 142.717 67.4635 142.748 67.4525C142.881 67.4042 142.983 67.2159 143.046 67.099C143.225 66.7671 143.32 66.1621 143.365 66.1944C143.409 66.2266 143.566 67.253 143.59 67.3685C143.614 67.484 143.803 68.6764 143.908 68.8941C144.014 69.1119 144.154 69.0755 144.192 68.9396C144.223 68.822 144.074 67.1543 144.074 67.1543C144.074 67.1543 144.056 66.9442 144.138 67.0079C144.22 67.0716 144.361 68.5882 144.42 68.8101C144.478 69.0321 144.611 69.149 144.726 68.9705C144.864 68.7541 144.626 67.1501 144.626 67.1501C144.626 67.1501 144.6 66.9484 144.677 66.9673C144.755 66.9862 144.854 68.2759 144.914 68.3872C144.975 68.4985 145.129 68.5392 145.202 68.3529C145.288 68.1338 145.065 66.7027 145.065 66.7027C145.065 66.7027 145.076 66.5885 145.125 66.6263C145.174 66.6642 145.328 67.7578 145.429 67.8586C145.439 67.8703 145.451 67.8796 145.464 67.886C145.477 67.8924 145.492 67.8957 145.506 67.8957C145.521 67.8957 145.535 67.8924 145.549 67.886C145.562 67.8796 145.574 67.8703 145.584 67.8586C145.769 67.7186 145.485 66.6796 145.489 66.1621C145.492 65.6447 145.274 65.0643 145.338 64.4489C145.347 64.4118 145.358 64.3166 145.365 64.257Z" fill="#F8A492"/>
<path d="M143.33 50.7L140.106 53.0882C140.106 53.0882 138.289 50.1049 137.313 49.0427C136.091 47.7125 137.759 43.6355 138.546 43.8658C140.306 44.3818 143.33 50.7 143.33 50.7Z" fill="#50BFA5"/>
<path d="M135.641 39.7441L136.123 43.2511C136.123 43.2511 134.361 47.4268 133.31 47.0649C132.428 46.761 132.971 43.0656 132.971 43.0656C132.971 43.0656 133.452 41.0814 133.307 40.0886C133.163 39.0958 135.641 39.7441 135.641 39.7441Z" fill="#F7A491"/>
<path d="M133.309 40.0886C133.165 39.0958 135.642 39.7441 135.642 39.7441L135.682 40.0347C135.62 40.2143 135.529 40.3803 135.414 40.5248C134.86 41.1822 133.995 41.575 133.249 41.6065C133.322 41.0695 133.368 40.4961 133.309 40.0886Z" fill="#F47458"/>
<path d="M136.049 34.7822C136.119 34.7542 136.611 38.7765 135.679 39.8835C134.746 40.9904 132.93 41.3538 132.279 40.4807C131.558 39.5166 131.594 35.1932 133.043 34.0547C134.491 32.9163 136.049 34.7822 136.049 34.7822Z" fill="#F7A491"/>
<path d="M133.596 31.9032C134.408 32.0962 135.145 32.5609 135.708 33.2334C136.217 33.3 136.908 33.6101 137.621 34.9138C138.499 36.5172 137.851 38.2941 136.829 39.1658C135.808 40.0375 135.822 41.0443 135.822 41.0443L135.66 40.5234C135.539 40.1292 135.496 39.7109 135.533 39.2967C135.552 39.0429 135.608 38.794 135.698 38.5595C135.944 37.977 135.17 37.5905 134.953 37.106C134.786 36.7328 134.778 35.88 134.515 35.2632L134.201 34.7927C134.201 34.7927 133.476 34.1703 132.766 34.346C132.056 34.5217 132.158 31.5797 133.596 31.9032Z" fill="#184655"/>
<path d="M134.999 37.8208C134.992 38.3109 135.194 38.7135 135.451 38.7184C135.708 38.7233 135.921 38.3291 135.929 37.8383C135.937 37.3475 135.734 36.9464 135.477 36.9415C135.221 36.9366 135.004 37.33 134.999 37.8208Z" fill="#F7A491"/>
<path d="M133.486 38.955L132.081 38.8745C132.081 38.8745 132.086 39.4654 132.703 39.5207C133.455 39.5872 133.486 38.955 133.486 38.955Z" fill="white"/>
<path d="M124.718 38.7303C124.718 38.7303 128.566 39.3409 127.978 43.4214C127.43 47.2288 124.13 46.4551 123.283 46.2647C122.435 46.0742 124.718 38.7303 124.718 38.7303Z" fill="#F7CC7F"/>
<path d="M123.283 46.268C122.888 46.1791 123.172 44.5386 123.588 42.8107C125.005 43.1159 126.581 43.4569 127.923 43.7482C127.238 47.1866 124.105 46.4529 123.283 46.268Z" fill="#E8BA70"/>
<path d="M122.503 46.9738C122.503 46.9738 121.658 50.2926 121.881 52.8705C122.088 55.2755 121.777 55.676 120.964 55.6011C120.151 55.5262 118.18 54.9906 118.145 54.1308C118.111 53.271 118.474 48.8642 119.84 46.4991C121.206 44.134 122.503 46.9738 122.503 46.9738Z" fill="#96D9C9"/>
<path d="M121.189 45.5903C121.73 45.9901 122.502 46.9738 122.502 46.9738C122.502 46.9738 121.656 50.2925 121.879 52.8705C122.087 55.2755 121.776 55.676 120.963 55.6011C120.553 55.5539 120.148 55.466 119.753 55.3385C119.431 49.4279 120.817 46.259 121.189 45.5903Z" fill="#50BFA5"/>
<path d="M113.061 30.6891C113.061 30.6891 119.443 35.8002 121.505 37.3447L122.715 39.3198L121.858 45.0737L119.796 46.1897L109.718 48.3798L109.951 47.1342L111.78 41.5526L112.714 35.1981L112.986 31.2905L113.061 30.6891Z" fill="#96D9C9"/>
<path d="M111.777 41.5498L112.022 39.8834L122.221 42.6147L121.855 45.0701L119.793 46.1869L109.714 48.3769L109.948 47.1314L111.777 41.5498Z" fill="#50BFA5"/>
<path d="M121.508 37.3405C121.508 37.3405 122.351 42.2212 119.796 46.1854C119.796 46.1854 119.653 46.553 119.964 46.782L121.867 47.3162C121.867 47.3162 122.749 47.66 123.492 46.266C124.236 44.872 125.551 41.743 124.772 38.2892C124.772 38.2892 124.581 37.3538 123.544 37.1822L122.161 36.8959C122.161 36.8959 121.545 36.7929 121.508 37.3405Z" fill="#3C8F7C"/>
<path d="M113.061 30.689C113.061 30.689 111.401 29.3441 110.441 29.3728C109.481 29.4015 108.519 30.8011 107.899 31.9493C107.278 33.0976 105.642 37.5883 105.486 40.6228C105.331 43.6572 105.359 47.9793 106.705 48.4946C108.052 49.0099 109.714 48.3804 109.714 48.3804C109.714 48.3804 111.894 46.3192 113.165 39.9086C114.437 33.4981 113.061 30.689 113.061 30.689Z" fill="#256653"/>
<path d="M107.66 48.6626C107.66 48.6626 106.108 46.4445 106.896 40.4554C108.142 31.0251 111.28 29.5989 111.28 29.5989C111.28 29.5989 113.604 31.546 111.384 40.6612C109.558 48.1682 107.66 48.6626 107.66 48.6626Z" fill="#3C8F7C"/>
<path d="M112.132 36.8238C111.95 38.1167 111.702 39.3972 111.389 40.6592C111.212 41.3867 111.034 42.0476 110.857 42.649C109.892 42.2807 108.332 41.3565 108.998 39.0131C109.616 36.8413 111.223 36.7103 112.132 36.8238Z" fill="#F7CC7F"/>
<path d="M111.389 40.6591C111.212 41.3866 111.034 42.0475 110.857 42.649C109.905 42.2856 108.374 41.3817 108.972 39.109L111.595 39.7762C111.531 40.0626 111.463 40.3567 111.389 40.6591Z" fill="#E8BA70"/>
<g style="mix-blend-mode:multiply" opacity="0.3">
<path d="M119.792 46.1869C120.523 45.0353 121.044 43.7383 121.324 42.3683L124.699 43.0684C124.43 44.1901 124.023 45.2662 123.489 46.2667C122.745 47.66 121.863 47.3169 121.863 47.3169L119.961 46.7827C119.65 46.5545 119.792 46.1869 119.792 46.1869Z" fill="#3C8F7C"/>
</g>
<path d="M122.287 50.5992C122.287 50.2113 122.235 49.9277 122.047 49.7821C121.859 49.6365 121.455 49.467 121.432 49.5062C121.408 49.5454 121.396 49.9501 122.013 50.4731C122.311 50.6559 122.287 50.5992 122.287 50.5992Z" fill="#F7A491"/>
</svg>
