<svg width="116" height="80" viewBox="0 0 116 80" fill="none" xmlns="http://www.w3.org/2000/svg">
<g clip-path="url(#clip0_820_2918)">
<path fill-rule="evenodd" clip-rule="evenodd" d="M116 59.5128C116 70.8268 90.0465 79.9994 58.003 79.9994C25.9595 79.9994 0 70.8268 0 59.5128C0 48.1988 25.9535 39.0261 58.003 39.0261C90.0526 39.0261 116 48.1988 116 59.5128Z" fill="#E2CAB3"/>
<path fill-rule="evenodd" clip-rule="evenodd" d="M116 57.2531C116 68.5671 90.0465 77.7398 58.003 77.7398C25.9595 77.7398 0 68.5671 0 57.2531C0 45.9392 25.9535 36.7665 58.003 36.7665C90.0526 36.7665 116 45.9392 116 57.2531Z" fill="white"/>
<path fill-rule="evenodd" clip-rule="evenodd" d="M116 56.929C116 67.889 90.0465 76.7726 58.003 76.7726C25.9595 76.7726 0 67.889 0 56.929C0 45.9689 25.9535 37.0912 58.003 37.0912C90.0526 37.0912 116 45.9748 116 56.929Z" fill="#E7D8C8"/>
<path fill-rule="evenodd" clip-rule="evenodd" d="M113.428 56.9294C113.428 64.7513 91.2168 71.0866 63.8208 71.0866C36.4248 71.0866 14.2074 64.7513 14.2074 56.9294C14.2074 49.1076 36.4187 42.7722 63.8208 42.7722C91.2228 42.7722 113.428 49.1135 113.428 56.9294Z" fill="#E2CAB3"/>
<path d="M109.246 57.4366C108.19 52.5996 103.047 50.5527 98.9852 50.2283C96.4804 50.0336 93.9756 50.5527 91.4768 50.6884C90.0884 50.7661 88.6956 50.7108 87.3182 50.5232C85.7972 50.3168 84.3426 49.78 82.8096 49.6561C80.1478 49.4437 77.5102 50.3463 75.0296 51.2901C72.1143 52.4049 69.1991 53.4195 66.2114 54.2808C60.318 56.0355 54.2465 57.157 48.1043 57.6254C45.606 57.8476 43.0916 57.8338 40.5959 57.5841C38.8456 57.3718 37.1194 56.9942 35.369 56.7937C32.3029 56.4574 28.9048 56.8527 27.6675 60.3743C26.7399 60.3712 25.825 60.5856 24.9997 60.9995C23.7503 61.5245 22.0784 62.4566 21.4326 63.8074C20.0866 66.6329 24.4505 67.7419 26.068 68.0427C27.6071 68.3259 29.1583 68.4262 30.7034 68.5854C32.8521 68.8096 34.5783 69.8065 36.3951 71.0217C40.9762 74.0831 47.0903 74.2837 52.3052 73.9298C55.1817 73.7189 58.0256 73.1986 60.7853 72.3784C63.7006 71.529 66.7003 72.0422 69.6457 72.5318C72.1758 73.054 74.8032 72.8991 77.2507 72.0834C79.7133 71.2281 81.8499 69.6649 83.9564 68.0958C86.4129 66.2672 89.2074 66.1551 92.0985 65.9251C94.9485 65.7522 97.7767 65.3277 100.548 64.6568C102.875 64.082 105.141 63.292 107.314 62.2973C109.161 61.3476 109.68 59.5779 109.246 57.4366Z" fill="#EEBE30"/>
<path d="M92.7808 53.2307C92.7808 60.852 76.2249 67.9365 56.289 67.9365C36.3531 67.9365 19.6644 60.327 19.6644 52.7057C19.6644 45.0844 36.3531 40.3181 56.289 40.3181C76.2249 40.3181 92.7808 45.6094 92.7808 53.2307Z" fill="#E3AC8A"/>
<path d="M92.3825 51.7612C92.3825 59.3825 76.225 65.5585 56.2891 65.5585C36.3532 65.5585 20.1896 59.3825 20.1896 51.7612C20.1896 44.1399 36.3532 37.9579 56.2891 37.9579C76.225 37.9579 92.3825 44.1399 92.3825 51.7612Z" fill="#DA840D"/>
<path d="M82.5445 50.452C82.5445 56.109 70.5576 60.6865 55.7641 60.6865C40.9706 60.6865 28.9717 56.109 28.9717 50.452C28.9717 44.795 40.9767 40.2175 55.7641 40.2175C70.5516 40.2175 82.5445 44.8304 82.5445 50.452Z" fill="#F0A508"/>
<path d="M37.7412 54.227C37.7412 54.8169 37.0591 55.3301 36.2141 55.3301C35.3691 55.3301 34.6931 54.8346 34.6931 54.227C34.6931 53.6194 35.3752 53.1239 36.2141 53.1239C37.0531 53.1239 37.7412 53.6194 37.7412 54.227Z" fill="#DA840D"/>
<path d="M34.6934 49.5853C34.6852 49.7478 34.6283 49.9044 34.5299 50.0356C34.4315 50.1669 34.2959 50.267 34.1399 50.3237C33.9838 50.3804 33.8142 50.391 33.652 50.3544C33.4898 50.3178 33.3421 50.2355 33.2273 50.1177C33.1125 49.9999 33.0355 49.8518 33.006 49.6917C32.9764 49.5316 32.9955 49.3665 33.061 49.2169C33.1265 49.0673 33.2354 48.9398 33.3743 48.8501C33.5132 48.7604 33.6759 48.7125 33.8424 48.7123C33.9571 48.7146 34.0701 48.739 34.1751 48.7842C34.28 48.8294 34.3748 48.8945 34.4539 48.9756C34.533 49.0568 34.5949 49.1524 34.636 49.2571C34.6771 49.3617 34.6966 49.4733 34.6934 49.5853Z" fill="#DA840D"/>
<path d="M45.2674 55.5658C45.2868 55.8526 45.2175 56.1384 45.0686 56.3862C44.9196 56.634 44.6979 56.8323 44.4322 56.9554C44.1665 57.0785 43.869 57.1207 43.5785 57.0765C43.2879 57.0324 43.0176 56.9038 42.8027 56.7077C42.5879 56.5115 42.4383 56.2567 42.3734 55.9764C42.3085 55.6961 42.3314 55.4032 42.439 55.1357C42.5466 54.8682 42.734 54.6386 42.9768 54.4765C43.2196 54.3144 43.5067 54.2274 43.8008 54.2268C43.9871 54.2205 44.1728 54.2501 44.3474 54.314C44.5219 54.3779 44.6819 54.4748 44.8181 54.5992C44.9543 54.7235 45.0641 54.8729 45.1412 55.0388C45.2183 55.2046 45.2612 55.3837 45.2674 55.5658Z" fill="#DA840D"/>
<path d="M42.0807 50.2521C42.0807 50.6179 41.6643 50.9187 41.1573 50.9187C40.6503 50.9187 40.2278 50.6179 40.2278 50.2521C40.2278 49.8864 40.6442 49.5856 41.1573 49.5856C41.6703 49.5856 42.0807 49.8805 42.0807 50.2521Z" fill="#DA840D"/>
<path d="M51.4119 53.4141C51.4339 53.5994 51.3978 53.7869 51.3083 53.9516C51.2189 54.1164 51.0803 54.2507 50.911 54.3368C50.7416 54.4228 50.5496 54.4565 50.3602 54.4335C50.1708 54.4104 49.993 54.3316 49.8505 54.2076C49.708 54.0836 49.6073 53.9201 49.562 53.7389C49.5167 53.5578 49.5287 53.3674 49.5966 53.193C49.6645 53.0187 49.7849 52.8686 49.942 52.7628C50.0992 52.6569 50.2855 52.6001 50.4763 52.6001C50.7104 52.5887 50.9396 52.6677 51.1146 52.82C51.2896 52.9723 51.3963 53.1856 51.4119 53.4141Z" fill="#DA840D"/>
<path d="M51.7684 58.3279C51.7684 58.7055 51.3217 59.0122 50.7665 59.0122C50.2112 59.0122 49.7645 58.7055 49.7645 58.3279C49.7645 57.9504 50.2172 57.6437 50.7665 57.6437C51.3157 57.6437 51.7684 57.9504 51.7684 58.3279Z" fill="#DA840D"/>
<path d="M47.7725 51.0067C47.7618 51.1438 47.7101 51.2748 47.6239 51.3834C47.5377 51.4921 47.4208 51.5736 47.2876 51.6178C47.1544 51.6621 47.0109 51.6672 46.8748 51.6325C46.7387 51.5977 46.616 51.5247 46.522 51.4224C46.428 51.3202 46.3668 51.1932 46.3459 51.0572C46.3251 50.9212 46.3456 50.7823 46.4048 50.6576C46.4641 50.5329 46.5595 50.428 46.6792 50.3558C46.799 50.2837 46.9377 50.2475 47.0783 50.2517C47.2715 50.2653 47.4518 50.3516 47.5812 50.4924C47.7107 50.6332 47.7792 50.8175 47.7725 51.0067Z" fill="#DA840D"/>
<path d="M58.1657 52.4404C58.1657 52.818 57.7311 53.1247 57.1939 53.1247C56.6567 53.1247 56.2222 52.818 56.2222 52.4404C56.2222 52.0629 56.6567 51.7621 57.1939 51.7621C57.7311 51.7621 58.1657 52.0629 58.1657 52.4404Z" fill="#DA840D"/>
<path d="M58.1657 55.9723C58.1657 56.1965 57.7311 56.3793 57.1939 56.3793C56.6567 56.3793 56.2222 56.1965 56.2222 55.9723C56.2222 55.7482 56.6567 55.5653 57.1939 55.5653C57.7311 55.5653 58.1657 55.7482 58.1657 55.9723Z" fill="#DA840D"/>
<path d="M64.7389 53.6784C64.7389 53.9792 64.3465 54.227 63.8576 54.227C63.3687 54.227 62.9824 53.9792 62.9824 53.6784C62.9824 53.3776 63.3748 53.1239 63.8576 53.1239C64.3405 53.1239 64.7389 53.3717 64.7389 53.6784Z" fill="#DA840D"/>
<path d="M63.6882 57.6202C63.7295 57.804 63.7113 57.9957 63.6363 58.169C63.5613 58.3422 63.433 58.4884 63.2693 58.5874C63.1056 58.6864 62.9145 58.7333 62.7224 58.7215C62.5302 58.7098 62.3466 58.64 62.1967 58.5219C62.0469 58.4038 61.9383 58.2431 61.8859 58.0621C61.8335 57.881 61.8399 57.6886 61.9043 57.5113C61.9686 57.3339 62.0877 57.1805 62.2451 57.0722C62.4025 56.9638 62.5904 56.9059 62.7829 56.9064C62.9992 56.8865 63.215 56.9499 63.3842 57.0833C63.5533 57.2166 63.6624 57.4093 63.6882 57.6202Z" fill="#DA840D"/>
<path d="M71.0039 56.4751C70.9662 56.6509 70.8783 56.8127 70.7503 56.9416C70.6223 57.0706 70.4596 57.1614 70.2809 57.2036C70.1022 57.2458 69.915 57.2375 69.7409 57.1799C69.5668 57.1222 69.413 57.0175 69.2974 56.8779C69.1818 56.7382 69.1091 56.5694 69.0877 56.391C69.0663 56.2125 69.0971 56.0319 69.1765 55.8699C69.256 55.7079 69.3808 55.5712 69.5365 55.4758C69.6923 55.3804 69.8725 55.33 70.0563 55.3307C70.3362 55.3619 70.5924 55.4993 70.7697 55.7134C70.9469 55.9274 71.031 56.201 71.0039 56.4751Z" fill="#DA840D"/>
<path d="M70.4788 51.3199C70.4788 51.5559 70.171 51.7446 69.7908 51.7446C69.4105 51.7446 69.1088 51.5559 69.1088 51.3199C69.1088 51.084 69.4166 50.9011 69.7908 50.9011C70.1649 50.9011 70.4788 51.1076 70.4788 51.3199Z" fill="#DA840D"/>
<path d="M76.273 52.5757C76.273 53.49 75.8565 54.2273 75.3495 54.2273C74.8425 54.2273 74.42 53.49 74.42 52.5757C74.42 51.6613 74.8365 50.9181 75.3495 50.9181C75.8626 50.9181 76.273 51.6613 76.273 52.5757Z" fill="#DA840D"/>
<path d="M78.5974 50.8946C78.5974 51.0119 78.5497 51.1244 78.4648 51.2074C78.3799 51.2904 78.2648 51.337 78.1447 51.337C78.0246 51.337 77.9095 51.2904 77.8246 51.2074C77.7397 51.1244 77.692 51.0119 77.692 50.8946C77.692 50.7772 77.7397 50.6647 77.8246 50.5817C77.9095 50.4988 78.0246 50.4521 78.1447 50.4521C78.2643 50.4537 78.3785 50.5008 78.4631 50.5834C78.5476 50.6661 78.5958 50.7777 78.5974 50.8946Z" fill="#DA840D"/>
<path d="M63.3747 49.485C63.3747 49.9038 62.8074 50.2519 62.1133 50.2519C61.4192 50.2519 60.8518 49.9038 60.8518 49.485C60.8518 49.0662 61.4131 48.7123 62.1133 48.7123C62.8134 48.7123 63.3747 49.0603 63.3747 49.485Z" fill="#DA840D"/>
<path d="M39.7085 45.5084C39.7085 45.768 39.2679 45.9803 38.7247 45.9803C38.1815 45.9803 37.7408 45.768 37.7408 45.5084C37.7408 45.2489 38.1815 45.0365 38.7247 45.0365C39.2679 45.0365 39.7085 45.2489 39.7085 45.5084Z" fill="#DA840D"/>
<path d="M45.5025 44.5597C45.5025 44.8251 45.0016 45.0375 44.3859 45.0375C43.7703 45.0375 43.2633 44.8251 43.2633 44.5597C43.2633 44.2942 43.7643 44.0878 44.3859 44.0878C45.0076 44.0878 45.5025 44.3001 45.5025 44.5597Z" fill="#DA840D"/>
<path d="M52.7945 45.7208C52.7945 46.0924 52.1185 46.3991 51.2795 46.3991C50.4405 46.3991 49.7645 46.0924 49.7645 45.7208C49.7645 45.3491 50.4466 45.0365 51.2795 45.0365C52.1124 45.0365 52.7945 45.3432 52.7945 45.7208Z" fill="#DA840D"/>
<path d="M58.1666 44.5596C58.1678 44.6546 58.14 44.7478 58.0867 44.8272C58.0335 44.9067 57.9572 44.9689 57.8676 45.0058C57.778 45.0426 57.6792 45.0526 57.5838 45.0344C57.4884 45.0161 57.4008 44.9705 57.332 44.9033C57.2633 44.8361 57.2166 44.7505 57.1979 44.6572C57.1793 44.564 57.1895 44.4674 57.2272 44.3799C57.265 44.2924 57.3286 44.2178 57.4099 44.1657C57.4912 44.1137 57.5865 44.0865 57.6837 44.0877C57.8118 44.0877 57.9346 44.1374 58.0252 44.2259C58.1157 44.3144 58.1666 44.4344 58.1666 44.5596Z" fill="#DA840D"/>
<path d="M57.1944 48.2928C57.1944 48.5229 56.7357 48.7117 56.1623 48.7117C55.5889 48.7117 55.1362 48.5229 55.1362 48.2928C55.1362 48.0628 55.5949 47.874 56.1623 47.874C56.7297 47.874 57.1944 48.0628 57.1944 48.2928Z" fill="#DA840D"/>
<path d="M65.2642 44.352C65.2617 44.489 65.2176 44.6221 65.1374 44.7345C65.0573 44.8469 64.9447 44.9334 64.8141 44.9831C64.6835 45.0327 64.5407 45.0433 64.4039 45.0134C64.2671 44.9834 64.1425 44.9144 64.046 44.8151C63.9495 44.7158 63.8854 44.5906 63.8619 44.4556C63.8384 44.3205 63.8566 44.1817 63.9141 44.0567C63.9716 43.9318 64.0658 43.8264 64.1848 43.754C64.3037 43.6816 64.4421 43.6454 64.5821 43.6501C64.6741 43.6524 64.7647 43.6723 64.8487 43.7089C64.9328 43.7454 65.0086 43.7977 65.072 43.8629C65.1353 43.9281 65.1849 44.0049 65.2179 44.0888C65.2508 44.1727 65.2666 44.2622 65.2642 44.352Z" fill="#DA840D"/>
<path d="M69.1092 47.1375C69.1092 47.2555 68.7531 47.3498 68.3064 47.3498C67.8597 47.3498 67.5096 47.2555 67.5096 47.1375C67.5096 47.0195 67.8658 46.9252 68.3064 46.9252C68.747 46.9252 69.1092 47.0195 69.1092 47.1375Z" fill="#DA840D"/>
<path d="M71.6133 45.7451C71.6283 45.8073 71.6232 45.8725 71.5985 45.9316C71.5739 45.9907 71.531 46.0409 71.4758 46.0751C71.4206 46.1092 71.3558 46.1257 71.2906 46.1222C71.2253 46.1187 71.1628 46.0953 71.1118 46.0554C71.0608 46.0155 71.0238 45.9611 71.0059 45.8996C70.9881 45.8382 70.9903 45.7728 71.0123 45.7127C71.0343 45.6525 71.0749 45.6006 71.1286 45.5641C71.1822 45.5276 71.2461 45.5084 71.3115 45.5092C71.3833 45.5025 71.4549 45.5234 71.5113 45.5674C71.5676 45.6114 71.6042 45.6752 71.6133 45.7451Z" fill="#DA840D"/>
<path d="M69.109 47.1367C69.095 47.2646 69.0435 47.3858 68.9605 47.4857C68.8776 47.5857 68.7669 47.66 68.6417 47.6998C68.5165 47.7395 68.3822 47.7431 68.255 47.7099C68.1278 47.6767 68.0132 47.6083 67.9249 47.5129C67.8366 47.4174 67.7785 47.299 67.7575 47.172C67.7365 47.045 67.7536 46.9148 67.8067 46.7971C67.8598 46.6793 67.9466 46.5791 68.0567 46.5085C68.1667 46.438 68.2953 46.4 68.427 46.3993C68.5213 46.4038 68.6138 46.4265 68.6992 46.466C68.7846 46.5056 68.8612 46.5612 68.9245 46.6297C68.9879 46.6982 69.0368 46.7782 69.0684 46.8652C69.1001 46.9522 69.1139 47.0444 69.109 47.1367Z" fill="#DA840D"/>
<path d="M72.9832 45.9564C72.9832 46.1983 72.609 46.3988 72.1442 46.3988C71.6795 46.3988 71.3113 46.1983 71.3113 45.9564C71.3113 45.7145 71.6855 45.5081 72.1442 45.5081C72.6029 45.5081 72.9832 45.7086 72.9832 45.9564Z" fill="#DA840D"/>
<path d="M92.7808 47.5681C92.7808 55.1835 76.2249 62.2739 56.289 62.2739C36.3531 62.2739 19.6644 54.6585 19.6644 47.0431C19.6644 39.4277 36.3531 34.6555 56.289 34.6555C76.2249 34.6555 92.7808 39.9468 92.7808 47.5681Z" fill="#E3AC8A"/>
<path d="M92.3825 46.0936C92.3825 53.7149 76.225 59.891 56.2891 59.891C36.3532 59.891 20.1896 53.7149 20.1896 46.0936C20.1896 38.4723 36.3532 32.2963 56.2891 32.2963C76.225 32.2963 92.3825 38.4723 92.3825 46.0936Z" fill="#DA840D"/>
<path d="M55.7634 55.0239C70.5538 55.0239 82.5438 50.4418 82.5438 44.7894C82.5438 39.1371 70.5538 34.5549 55.7634 34.5549C40.973 34.5549 28.983 39.1371 28.983 44.7894C28.983 50.4418 40.973 55.0239 55.7634 55.0239Z" fill="#F0A508"/>
<path d="M37.7412 48.5654C37.7412 49.1553 37.0591 49.6685 36.2141 49.6685C35.3691 49.6685 34.6931 49.173 34.6931 48.5654C34.6931 47.9578 35.3752 47.4623 36.2141 47.4623C37.0531 47.4623 37.7412 47.9519 37.7412 48.5654Z" fill="#DA840D"/>
<path d="M34.6933 43.9164C34.6885 44.0798 34.6346 44.2382 34.5383 44.3719C34.4419 44.5055 34.3074 44.6084 34.1516 44.6678C33.9957 44.7271 33.8254 44.7403 33.6619 44.7056C33.4985 44.6708 33.3491 44.5898 33.2325 44.4726C33.1159 44.3554 33.0372 44.2072 33.0062 44.0466C32.9753 43.8859 32.9935 43.7199 33.0586 43.5693C33.1236 43.4187 33.2327 43.2901 33.3721 43.1997C33.5114 43.1093 33.675 43.0611 33.8423 43.061C34.0707 43.0657 34.288 43.158 34.4473 43.3181C34.6065 43.4782 34.6949 43.6931 34.6933 43.9164Z" fill="#DA840D"/>
<path d="M45.2674 49.9029C45.2868 50.1897 45.2175 50.4755 45.0686 50.7233C44.9196 50.9711 44.6979 51.1694 44.4322 51.2925C44.1665 51.4156 43.869 51.4578 43.5785 51.4137C43.2879 51.3695 43.0176 51.2409 42.8027 51.0448C42.5879 50.8486 42.4383 50.5938 42.3734 50.3135C42.3085 50.0332 42.3314 49.7403 42.439 49.4728C42.5466 49.2053 42.734 48.9757 42.9768 48.8136C43.2196 48.6515 43.5067 48.5645 43.8008 48.5639C44.1766 48.5527 44.5417 48.6872 44.8164 48.9381C45.0912 49.1889 45.2533 49.5357 45.2674 49.9029Z" fill="#DA840D"/>
<path d="M42.0807 44.5885C42.0807 44.9542 41.6643 45.2551 41.1573 45.2551C40.6503 45.2551 40.2278 44.9542 40.2278 44.5885C40.2278 44.2228 40.6442 43.916 41.1573 43.916C41.6703 43.916 42.0807 44.2405 42.0807 44.5885Z" fill="#DA840D"/>
<path d="M51.4119 47.7808C51.4339 47.9661 51.3978 48.1535 51.3083 48.3183C51.2189 48.4831 51.0803 48.6174 50.911 48.7034C50.7416 48.7895 50.5496 48.8232 50.3602 48.8002C50.1708 48.7771 49.993 48.6983 49.8505 48.5743C49.708 48.4503 49.6073 48.2868 49.562 48.1056C49.5167 47.9244 49.5287 47.7341 49.5966 47.5597C49.6645 47.3854 49.7849 47.2353 49.942 47.1294C50.0992 47.0236 50.2855 46.9668 50.4763 46.9668C50.7104 46.9554 50.9396 47.0344 51.1146 47.1867C51.2896 47.339 51.3963 47.5523 51.4119 47.7808Z" fill="#DA840D"/>
<path d="M51.7684 52.6581C51.7684 53.0356 51.3217 53.3424 50.7665 53.3424C50.2112 53.3424 49.7645 53.0356 49.7645 52.6581C49.7645 52.2806 50.2172 51.9797 50.7665 51.9797C51.3157 51.9797 51.7684 52.2806 51.7684 52.6581Z" fill="#DA840D"/>
<path d="M47.7726 45.3368C47.7631 45.4742 47.7124 45.6059 47.6268 45.7153C47.5413 45.8248 47.4247 45.9073 47.2915 45.9524C47.1584 45.9976 47.0146 46.0035 46.878 45.9693C46.7415 45.9352 46.6182 45.8625 46.5236 45.7604C46.429 45.6583 46.3672 45.5313 46.346 45.3951C46.3247 45.2589 46.3449 45.1196 46.4041 44.9946C46.4633 44.8696 46.5587 44.7643 46.6787 44.692C46.7986 44.6196 46.9376 44.5833 47.0785 44.5876C47.2712 44.5998 47.4514 44.6848 47.581 44.8247C47.7106 44.9645 47.7793 45.1482 47.7726 45.3368Z" fill="#DA840D"/>
<path d="M58.1657 46.7768C58.1657 47.1543 57.7311 47.4611 57.1939 47.4611C56.6567 47.4611 56.2222 47.1543 56.2222 46.7768C56.2222 46.3993 56.6567 46.0925 57.1939 46.0925C57.7311 46.0925 58.1657 46.3993 58.1657 46.7768Z" fill="#DA840D"/>
<path d="M58.1657 50.3107C58.1657 50.5349 57.7311 50.7177 57.1939 50.7177C56.6567 50.7177 56.2222 50.5349 56.2222 50.3107C56.2222 50.0866 56.6567 49.9037 57.1939 49.9037C57.7311 49.9037 58.1657 50.0866 58.1657 50.3107Z" fill="#DA840D"/>
<path d="M64.7389 48.0109C64.7389 48.3176 64.3465 48.5654 63.8576 48.5654C63.3687 48.5654 62.9824 48.3176 62.9824 48.0109C62.9824 47.7041 63.3748 47.4623 63.8576 47.4623C64.3405 47.4623 64.7389 47.71 64.7389 48.0109Z" fill="#DA840D"/>
<path d="M63.6884 51.9498C63.7309 52.1335 63.714 52.3255 63.6399 52.4994C63.5659 52.6733 63.4383 52.8204 63.275 52.9203C63.1117 53.0203 62.9206 53.0681 62.7282 53.0573C62.5358 53.0464 62.3516 52.9774 62.2011 52.8597C62.0507 52.742 61.9413 52.5816 61.8882 52.4005C61.8352 52.2195 61.841 52.0268 61.9049 51.8491C61.9688 51.6714 62.0876 51.5175 62.2449 51.4087C62.4023 51.2999 62.5903 51.2416 62.783 51.2419C62.9987 51.2203 63.2145 51.2824 63.3839 51.4148C63.5532 51.5472 63.6626 51.7393 63.6884 51.9498Z" fill="#DA840D"/>
<path d="M71.0037 50.8052C70.9661 50.9796 70.8788 51.14 70.7518 51.2679C70.6247 51.3958 70.4633 51.4859 70.286 51.5279C70.1088 51.5698 69.923 51.5618 69.7502 51.5049C69.5774 51.448 69.4247 51.3444 69.3096 51.2061C69.1945 51.0679 69.1218 50.9006 69.1 50.7237C69.0781 50.5468 69.108 50.3674 69.1861 50.2064C69.2642 50.0453 69.3873 49.9092 69.5413 49.8137C69.6953 49.7182 69.8737 49.6672 70.0561 49.6667C70.3349 49.698 70.5901 49.8346 70.7672 50.0473C70.9443 50.2601 71.0292 50.5321 71.0037 50.8052Z" fill="#DA840D"/>
<path d="M70.4788 45.6743C70.4788 45.9044 70.171 46.0931 69.7908 46.0931C69.4105 46.0931 69.1088 45.9044 69.1088 45.6743C69.1088 45.4443 69.4166 45.2555 69.7908 45.2555C70.1649 45.2555 70.4788 45.4207 70.4788 45.6743Z" fill="#DA840D"/>
<path d="M76.273 46.9072C76.273 47.8215 75.8565 48.5647 75.3495 48.5647C74.8425 48.5647 74.42 47.8215 74.42 46.9072C74.42 45.9928 74.8365 45.2555 75.3495 45.2555C75.8626 45.2555 76.273 46.0105 76.273 46.9072Z" fill="#DA840D"/>
<path d="M78.5974 45.2306C78.5959 45.3475 78.5477 45.4591 78.4631 45.5418C78.3785 45.6244 78.2643 45.6715 78.1447 45.673C78.0552 45.673 77.9677 45.6471 77.8932 45.5985C77.8188 45.5499 77.7607 45.4808 77.7265 45.3999C77.6922 45.3191 77.6832 45.2301 77.7007 45.1443C77.7182 45.0585 77.7613 44.9797 77.8246 44.9178C77.8879 44.8559 77.9686 44.8138 78.0564 44.7967C78.1442 44.7796 78.2352 44.7884 78.318 44.8219C78.4007 44.8554 78.4714 44.9121 78.5211 44.9848C78.5709 45.0576 78.5974 45.1431 78.5974 45.2306Z" fill="#DA840D"/>
<path d="M63.3747 43.8165C63.3747 44.2412 62.8074 44.5893 62.1133 44.5893C61.4192 44.5893 60.8518 44.2412 60.8518 43.8165C60.8518 43.3918 61.4131 43.0497 62.1133 43.0497C62.8134 43.0497 63.3747 43.3918 63.3747 43.8165Z" fill="#DA840D"/>
<path d="M39.7085 39.8402C39.7085 40.1056 39.2679 40.318 38.7247 40.318C38.1815 40.318 37.7408 40.1056 37.7408 39.8402C37.7408 39.5747 38.1815 39.3683 38.7247 39.3683C39.2679 39.3683 39.7085 39.5806 39.7085 39.8402Z" fill="#DA840D"/>
<path d="M45.5025 38.8957C45.5025 39.1553 45.0016 39.3676 44.3859 39.3676C43.7703 39.3676 43.2633 39.1553 43.2633 38.8957C43.2633 38.6362 43.7643 38.4238 44.3859 38.4238C45.0076 38.4238 45.5025 38.6362 45.5025 38.8957Z" fill="#DA840D"/>
<path d="M52.7945 40.0526C52.7945 40.4301 52.1185 40.7369 51.2795 40.7369C50.4405 40.7369 49.7645 40.4301 49.7645 40.0526C49.7645 39.675 50.4466 39.3683 51.2795 39.3683C52.1124 39.3683 52.7945 39.675 52.7945 40.0526Z" fill="#DA840D"/>
<path d="M58.1666 38.8956C58.1678 38.9906 58.14 39.0838 58.0867 39.1633C58.0335 39.2428 57.9572 39.3049 57.8676 39.3418C57.778 39.3787 57.6792 39.3887 57.5838 39.3704C57.4884 39.3522 57.4008 39.3065 57.332 39.2394C57.2633 39.1722 57.2166 39.0865 57.1979 38.9933C57.1793 38.9001 57.1895 38.8035 57.2272 38.716C57.265 38.6284 57.3286 38.5539 57.4099 38.5018C57.4912 38.4498 57.5865 38.4226 57.6837 38.4237C57.8118 38.4237 57.9346 38.4735 58.0252 38.562C58.1157 38.6505 58.1666 38.7705 58.1666 38.8956Z" fill="#DA840D"/>
<path d="M57.1944 42.6304C57.1944 42.8604 56.7357 43.0492 56.1623 43.0492C55.5889 43.0492 55.1362 42.8604 55.1362 42.6304C55.1362 42.4003 55.5949 42.2057 56.1623 42.2057C56.7297 42.2057 57.1944 42.3944 57.1944 42.6304Z" fill="#DA840D"/>
<path d="M65.2642 38.6897C65.2653 38.8274 65.2243 38.9623 65.1463 39.0771C65.0683 39.1918 64.957 39.2811 64.8266 39.3335C64.6963 39.3859 64.5529 39.3989 64.4149 39.371C64.2769 39.3431 64.1506 39.2754 64.0523 39.1768C63.9539 39.0781 63.888 38.9529 63.8631 38.8174C63.8381 38.6818 63.8553 38.542 63.9122 38.4161C63.9692 38.2901 64.0635 38.1837 64.1829 38.1105C64.3023 38.0373 64.4414 38.0007 64.5822 38.0054C64.7652 38.0085 64.9396 38.0822 65.0673 38.2103C65.1951 38.3385 65.2658 38.5108 65.2642 38.6897Z" fill="#DA840D"/>
<path d="M69.1092 41.4736C69.1092 41.5857 68.7531 41.6801 68.3064 41.6801C67.8597 41.6801 67.5096 41.5857 67.5096 41.4736C67.5096 41.3615 67.8658 41.2612 68.3064 41.2612C68.747 41.2612 69.1092 41.3556 69.1092 41.4736Z" fill="#DA840D"/>
<path d="M71.6137 40.1118C71.6275 40.174 71.6211 40.2389 71.5955 40.2974C71.5698 40.3559 71.5262 40.4052 71.4706 40.4384C71.4151 40.4716 71.3503 40.4871 71.2853 40.4827C71.2203 40.4783 71.1584 40.4542 71.108 40.4138C71.0576 40.3735 71.0214 40.3188 71.0042 40.2574C70.9871 40.196 70.9899 40.1309 71.0123 40.0711C71.0348 40.0113 71.0756 39.9598 71.1293 39.9238C71.183 39.8877 71.2468 39.8689 71.312 39.8699C71.3847 39.8633 71.4572 39.885 71.5137 39.9303C71.5702 39.9756 71.6061 40.0408 71.6137 40.1118Z" fill="#DA840D"/>
<path d="M69.109 41.474C69.095 41.602 69.0435 41.7232 68.9605 41.8231C68.8776 41.9231 68.7669 41.9974 68.6417 42.0372C68.5165 42.0769 68.3822 42.0805 68.255 42.0473C68.1278 42.0141 68.0132 41.9457 67.9249 41.8502C67.8366 41.7548 67.7785 41.6364 67.7575 41.5094C67.7365 41.3824 67.7536 41.2522 67.8067 41.1345C67.8598 41.0167 67.9466 40.9165 68.0567 40.8459C68.1667 40.7754 68.2953 40.7374 68.427 40.7367C68.5213 40.7412 68.6138 40.7639 68.6992 40.8034C68.7846 40.843 68.8612 40.8986 68.9245 40.9671C68.9879 41.0356 69.0368 41.1156 69.0684 41.2026C69.1001 41.2896 69.1139 41.3818 69.109 41.474Z" fill="#DA840D"/>
<path d="M72.9832 40.2882C72.9832 40.5359 72.609 40.7365 72.1442 40.7365C71.6795 40.7365 71.3113 40.5359 71.3113 40.2882C71.3113 40.0404 71.6855 39.8398 72.1442 39.8398C72.6029 39.8398 72.9832 40.0404 72.9832 40.2882Z" fill="#DA840D"/>
<path d="M93.3541 37.4452C93.3541 45.0606 76.7921 52.151 56.8562 52.151C36.9203 52.151 20.2377 44.5356 20.2377 36.9143C20.2377 29.293 36.9203 24.5563 56.8562 24.5563C76.7921 24.5563 93.3541 29.8239 93.3541 37.4452Z" fill="#E3AC8A"/>
<path d="M92.9492 35.9826C92.9492 43.6039 76.7856 49.78 56.8497 49.78C36.9138 49.78 20.7623 43.5921 20.7623 35.9826C20.7623 28.3731 36.9199 22.1735 56.8558 22.1735C76.7917 22.1735 92.9492 28.3495 92.9492 35.9826Z" fill="#DA840D"/>
<path d="M83.1176 34.6669C83.1176 40.318 71.1247 44.9014 56.3372 44.9014C41.5498 44.9014 29.575 40.318 29.575 34.6669C29.575 29.0158 41.5498 24.4265 56.3372 24.4265C71.1247 24.4265 83.1176 29.0099 83.1176 34.6669Z" fill="#F0A508"/>
<path d="M38.3086 38.4426C38.3086 39.0325 37.6326 39.5457 36.7876 39.5457C35.9426 39.5457 35.2666 39.0502 35.2666 38.4426C35.2666 37.835 35.9486 37.3395 36.8178 37.3395C37.6869 37.3395 38.3086 37.8291 38.3086 38.4426Z" fill="#DA840D"/>
<path d="M35.2666 33.794C35.2595 33.9563 35.2039 34.113 35.1067 34.2448C35.0095 34.3766 34.875 34.4777 34.7197 34.5356C34.5644 34.5935 34.3951 34.6057 34.2328 34.5707C34.0705 34.5356 33.9222 34.4549 33.8063 34.3385C33.6904 34.222 33.6119 34.0749 33.5806 33.9154C33.5492 33.7559 33.5664 33.5909 33.6299 33.4407C33.6934 33.2906 33.8005 33.1619 33.938 33.0706C34.0755 32.9793 34.2373 32.9293 34.4035 32.9269C34.5187 32.9276 34.6325 32.9508 34.7385 32.9949C34.8444 33.039 34.9403 33.1033 35.0206 33.184C35.1009 33.2647 35.164 33.3601 35.2063 33.4649C35.2485 33.5696 35.269 33.6815 35.2666 33.794Z" fill="#DA840D"/>
<path d="M45.871 39.7814C45.8891 40.0669 45.8191 40.3511 45.67 40.5972C45.5209 40.8433 45.2997 41.0399 45.0349 41.1617C44.7701 41.2834 44.474 41.3246 44.185 41.2799C43.8959 41.2352 43.6273 41.1067 43.4139 40.9111C43.2004 40.7154 43.0521 40.4616 42.988 40.1826C42.9239 39.9035 42.947 39.6121 43.0544 39.3461C43.1618 39.08 43.3485 38.8516 43.5902 38.6905C43.832 38.5294 44.1177 38.443 44.4103 38.4424C44.7855 38.4313 45.15 38.566 45.4238 38.817C45.6975 39.068 45.8584 39.4148 45.871 39.7814Z" fill="#DA840D"/>
<path d="M42.654 34.4601C42.654 34.8318 42.2375 35.1326 41.7245 35.1326C41.2115 35.1326 40.801 34.8318 40.801 34.4601C40.801 34.0885 41.2175 33.7936 41.7245 33.7936C42.2315 33.7936 42.654 34.0944 42.654 34.4601Z" fill="#DA840D"/>
<path d="M51.9856 37.6287C52.0076 37.814 51.9715 38.0014 51.8821 38.1662C51.7926 38.331 51.654 38.4653 51.4847 38.5513C51.3154 38.6374 51.1233 38.6711 50.9339 38.648C50.7445 38.625 50.5668 38.5462 50.4242 38.4222C50.2817 38.2981 50.1811 38.1347 50.1357 37.9535C50.0904 37.7723 50.1024 37.582 50.1703 37.4076C50.2382 37.2333 50.3587 37.0832 50.5158 36.9773C50.6729 36.8715 50.8592 36.8147 51.0501 36.8147C51.2841 36.8033 51.5133 36.8823 51.6883 37.0346C51.8633 37.1869 51.9701 37.4002 51.9856 37.6287Z" fill="#DA840D"/>
<path d="M52.3413 42.5367C52.3413 42.9143 51.8946 43.221 51.3393 43.221C50.784 43.221 50.3374 42.9143 50.3374 42.5367C50.3374 42.1592 50.784 41.882 51.3393 41.882C51.8946 41.882 52.3413 42.1651 52.3413 42.5367Z" fill="#DA840D"/>
<path d="M48.3463 35.2154C48.3463 35.4016 48.2706 35.5801 48.1359 35.7118C48.0012 35.8434 47.8185 35.9174 47.628 35.9174C47.4375 35.9174 47.2549 35.8434 47.1202 35.7118C46.9855 35.5801 46.9098 35.4016 46.9098 35.2154C46.9098 35.0292 46.9855 34.8507 47.1202 34.719C47.2549 34.5874 47.4375 34.5134 47.628 34.5134C47.8185 34.5134 48.0012 34.5874 48.1359 34.719C48.2706 34.8507 48.3463 35.0292 48.3463 35.2154Z" fill="#DA840D"/>
<path d="M58.7393 36.6549C58.7393 37.0324 58.3047 37.3391 57.7675 37.3391C57.2303 37.3391 56.7958 37.0324 56.7958 36.6549C56.7958 36.2774 57.2303 35.9824 57.7675 35.9824C58.3047 35.9824 58.7393 36.2774 58.7393 36.6549Z" fill="#DA840D"/>
<path d="M58.7393 40.1879C58.7393 40.4121 58.3047 40.5949 57.7675 40.5949C57.2303 40.5949 56.7958 40.4121 56.7958 40.1879C56.7958 39.9637 57.2303 39.7809 57.7675 39.7809C58.3047 39.7809 58.7393 39.9637 58.7393 40.1879Z" fill="#DA840D"/>
<path d="M65.3117 37.8881C65.3117 38.1948 64.9194 38.4425 64.4305 38.4425C63.9416 38.4425 63.5493 38.1948 63.5493 37.8881C63.5493 37.5813 63.9477 37.3395 64.4305 37.3395C64.9134 37.3395 65.3117 37.5872 65.3117 37.8881Z" fill="#DA840D"/>
<path d="M64.262 41.8276C64.3058 42.0124 64.2897 42.2059 64.216 42.3814C64.1422 42.5569 64.0145 42.7056 63.8504 42.807C63.6863 42.9083 63.494 42.9573 63.3002 42.947C63.1064 42.9368 62.9206 42.8679 62.7686 42.7498C62.6167 42.6318 62.506 42.4705 62.4521 42.2883C62.3981 42.106 62.4034 41.9119 62.4674 41.7328C62.5313 41.5537 62.6507 41.3984 62.809 41.2886C62.9672 41.1787 63.1565 41.1197 63.3506 41.1197C63.5673 41.0964 63.7847 41.1578 63.9554 41.2903C64.126 41.4229 64.2362 41.616 64.262 41.8276Z" fill="#DA840D"/>
<path d="M71.5775 40.7015C71.5335 40.8734 71.4412 41.0299 71.311 41.1533C71.1807 41.2766 71.0178 41.3619 70.8405 41.3994C70.6633 41.437 70.4789 41.4253 70.3081 41.3657C70.1372 41.3061 69.9869 41.201 69.8741 41.0623C69.7612 40.9235 69.6903 40.7567 69.6694 40.5806C69.6485 40.4046 69.6785 40.2263 69.7559 40.066C69.8333 39.9057 69.955 39.7698 70.1073 39.6736C70.2597 39.5774 70.4365 39.5248 70.6178 39.5217C70.7609 39.5356 70.8997 39.5773 71.026 39.6446C71.1523 39.7118 71.2635 39.8032 71.353 39.9132C71.4425 40.0232 71.5085 40.1497 71.5471 40.2851C71.5856 40.4205 71.596 40.5621 71.5775 40.7015Z" fill="#DA840D"/>
<path d="M71.0526 35.5515C71.0526 35.7816 70.7448 35.9703 70.3645 35.9703C69.9843 35.9703 69.6825 35.7816 69.6825 35.5515C69.6825 35.3215 69.9843 35.1327 70.3645 35.1327C70.7448 35.1327 71.0526 35.3215 71.0526 35.5515Z" fill="#DA840D"/>
<path d="M76.8467 36.7844C76.8467 37.6987 76.4302 38.442 75.9172 38.442C75.4042 38.442 74.9938 37.6987 74.9938 36.7844C74.9938 35.87 75.4102 35.1327 75.9172 35.1327C76.4242 35.1327 76.8467 35.87 76.8467 36.7844Z" fill="#DA840D"/>
<path d="M79.1645 35.1093C79.1633 35.1953 79.1361 35.2792 79.0863 35.3502C79.0365 35.4212 78.9663 35.4762 78.8846 35.5083C78.8029 35.5405 78.7133 35.5483 78.6271 35.5308C78.5408 35.5133 78.4618 35.4712 78.4 35.41C78.3381 35.3487 78.2961 35.2709 78.2794 35.1864C78.2626 35.1019 78.2718 35.0144 78.3058 34.935C78.3398 34.8556 78.397 34.7878 78.4703 34.74C78.5437 34.6923 78.6298 34.6669 78.7179 34.6669C78.8369 34.6684 78.9505 34.7157 79.0341 34.7985C79.1176 34.8813 79.1645 34.993 79.1645 35.1093Z" fill="#DA840D"/>
<path d="M63.942 33.6937C63.942 34.1184 63.3807 34.4606 62.6866 34.4606C61.9925 34.4606 61.4252 34.1184 61.4252 33.6937C61.4252 33.269 61.9865 32.9269 62.6866 32.9269C63.3867 32.9269 63.942 33.269 63.942 33.6937Z" fill="#DA840D"/>
<path d="M40.2825 29.7233C40.2825 29.9828 39.8419 30.1952 39.2987 30.1952C38.7555 30.1952 38.3088 29.9828 38.3088 29.7233C38.3088 29.4637 38.7494 29.2455 39.2987 29.2455C39.8479 29.2455 40.2825 29.4578 40.2825 29.7233Z" fill="#DA840D"/>
<path d="M46.0763 28.7743C46.0763 29.0397 45.5753 29.2462 44.9536 29.2462C44.332 29.2462 43.837 29.0397 43.837 28.7743C43.837 28.5088 44.338 28.3024 44.9536 28.3024C45.5693 28.3024 46.0763 28.5147 46.0763 28.7743Z" fill="#DA840D"/>
<path d="M53.3673 29.9297C53.3673 30.3073 52.6913 30.614 51.8524 30.614C51.0134 30.614 50.3374 30.3073 50.3374 29.9297C50.3374 29.5522 51.0194 29.2455 51.8524 29.2455C52.6853 29.2455 53.3673 29.5522 53.3673 29.9297Z" fill="#DA840D"/>
<path d="M58.7395 28.7732C58.7261 28.89 58.6692 28.9979 58.5795 29.0763C58.4899 29.1547 58.3738 29.198 58.2536 29.198C58.1333 29.198 58.0173 29.1547 57.9276 29.0763C57.838 28.9979 57.781 28.89 57.7677 28.7732C57.781 28.6564 57.838 28.5485 57.9276 28.4701C58.0173 28.3917 58.1333 28.3484 58.2536 28.3484C58.3738 28.3484 58.4899 28.3917 58.5795 28.4701C58.6692 28.5485 58.7261 28.6564 58.7395 28.7732Z" fill="#DA840D"/>
<path d="M57.7675 32.5017C57.7675 32.7377 57.3087 32.9264 56.7353 32.9264C56.162 32.9264 55.7032 32.7377 55.7032 32.5017C55.7032 32.2658 56.168 32.0829 56.7353 32.0829C57.3027 32.0829 57.7675 32.2716 57.7675 32.5017Z" fill="#DA840D"/>
<path d="M65.8376 28.5668C65.8388 28.7035 65.7984 28.8376 65.7215 28.9518C65.6447 29.0661 65.5348 29.1555 65.4059 29.2086C65.277 29.2618 65.1348 29.2763 64.9974 29.2503C64.86 29.2243 64.7336 29.1591 64.6343 29.0628C64.5349 28.9665 64.4671 28.8436 64.4393 28.7095C64.4116 28.5755 64.4252 28.4364 64.4785 28.31C64.5317 28.1835 64.6222 28.0754 64.7385 27.9993C64.8547 27.9232 64.9915 27.8826 65.1314 27.8825C65.2241 27.881 65.3162 27.8975 65.4022 27.9313C65.4882 27.9651 65.5664 28.0153 65.6322 28.0791C65.698 28.1429 65.7501 28.2189 65.7854 28.3026C65.8207 28.3864 65.8384 28.4762 65.8376 28.5668Z" fill="#DA840D"/>
<path d="M69.6815 31.3521C69.6815 31.4642 69.3193 31.5586 68.8787 31.5586C68.4381 31.5586 68.082 31.4642 68.082 31.3521C68.082 31.2401 68.4381 31.1398 68.8787 31.1398C69.3193 31.1398 69.6815 31.2636 69.6815 31.3521Z" fill="#DA840D"/>
<path d="M72.1871 29.9602C72.1684 30.0243 72.1288 30.0806 72.0744 30.1208C72.0199 30.1609 71.9535 30.1826 71.8853 30.1826C71.8171 30.1826 71.7507 30.1609 71.6963 30.1208C71.6418 30.0806 71.6022 30.0243 71.5835 29.9602C71.6022 29.8961 71.6418 29.8397 71.6963 29.7995C71.7507 29.7594 71.8171 29.7377 71.8853 29.7377C71.9535 29.7377 72.0199 29.7594 72.0744 29.7995C72.1288 29.8397 72.1684 29.8961 72.1871 29.9602Z" fill="#DA840D"/>
<path d="M69.6824 31.3514C69.6684 31.4793 69.6168 31.6005 69.5339 31.7005C69.451 31.8004 69.3402 31.8747 69.215 31.9145C69.0898 31.9543 68.9555 31.9578 68.8284 31.9246C68.7012 31.8914 68.5865 31.823 68.4982 31.7276C68.41 31.6321 68.3518 31.5138 68.3309 31.3868C68.3099 31.2597 68.327 31.1295 68.3801 31.0118C68.4331 30.894 68.5199 30.7938 68.63 30.7233C68.7401 30.6527 68.8687 30.6147 69.0003 30.614C69.0947 30.6185 69.1872 30.6412 69.2726 30.6808C69.358 30.7203 69.4345 30.7759 69.4979 30.8444C69.5612 30.9129 69.6101 30.9929 69.6418 31.0799C69.6735 31.1669 69.6872 31.2592 69.6824 31.3514Z" fill="#DA840D"/>
<path d="M73.5572 30.1662C73.5572 30.4139 73.183 30.6145 72.7182 30.6145C72.2535 30.6145 71.8793 30.4139 71.8793 30.1662C71.8793 29.9184 72.2535 29.7238 72.7182 29.7238C73.183 29.7238 73.5572 29.9184 73.5572 30.1662Z" fill="#DA840D"/>
<path d="M93.3541 30.9387C93.3541 38.56 76.7921 45.6445 56.8562 45.6445C36.9203 45.6445 20.2377 38.035 20.2377 30.4137C20.2377 22.7924 36.9203 18.0261 56.8562 18.0261C76.7921 18.0261 93.3541 23.3174 93.3541 30.9387Z" fill="#E3AC8A"/>
<path d="M92.9492 29.4938C92.9492 37.1092 76.7856 43.2912 56.8497 43.2912C36.9138 43.2912 20.7623 37.0856 20.7623 29.4938C20.7623 21.902 36.9199 15.6906 56.8558 15.6906C76.7917 15.6906 92.9492 21.8253 92.9492 29.4938Z" fill="#DA840D"/>
<path d="M83.1176 28.1603C83.1176 33.8114 71.1247 38.3948 56.3372 38.3948C41.5498 38.3948 29.575 33.8114 29.575 28.1603C29.575 22.5092 41.5498 17.9199 56.3372 17.9199C71.1247 17.9199 83.1176 22.5033 83.1176 28.1603Z" fill="#F0A508"/>
<path d="M38.3086 31.9361C38.3086 32.526 37.6326 33.0392 36.7876 33.0392C35.9426 33.0392 35.2666 32.5437 35.2666 31.9361C35.2666 31.3285 35.9486 30.833 36.7876 30.833C37.6266 30.833 38.3086 31.3285 38.3086 31.9361Z" fill="#DA840D"/>
<path d="M35.2666 27.2875C35.2595 27.4498 35.2039 27.6066 35.1067 27.7384C35.0095 27.8702 34.875 27.9712 34.7197 28.0291C34.5644 28.0871 34.3951 28.0992 34.2328 28.0642C34.0705 28.0292 33.9222 27.9485 33.8063 27.832C33.6904 27.7156 33.6119 27.5685 33.5806 27.4089C33.5492 27.2494 33.5664 27.0844 33.6299 26.9343C33.6934 26.7841 33.8005 26.6555 33.938 26.5641C34.0755 26.4728 34.2373 26.4229 34.4035 26.4204C34.5187 26.4212 34.6325 26.4443 34.7385 26.4884C34.8444 26.5326 34.9403 26.5968 35.0206 26.6775C35.1009 26.7582 35.164 26.8537 35.2063 26.9584C35.2485 27.0631 35.269 27.175 35.2666 27.2875Z" fill="#DA840D"/>
<path d="M44.3927 34.6133C45.1993 34.6133 45.8533 34.0137 45.8533 33.2742C45.8533 32.5347 45.1993 31.9352 44.3927 31.9352C43.586 31.9352 42.932 32.5347 42.932 33.2742C42.932 34.0137 43.586 34.6133 44.3927 34.6133Z" fill="#DA840D"/>
<path d="M42.654 27.9604C42.654 28.3262 42.2375 28.627 41.7245 28.627C41.2115 28.627 40.801 28.3144 40.801 27.9604C40.801 27.6065 41.2175 27.288 41.7245 27.288C42.2315 27.288 42.654 27.5888 42.654 27.9604Z" fill="#DA840D"/>
<path d="M51.9856 31.1221C52.0076 31.3074 51.9715 31.4948 51.8821 31.6596C51.7926 31.8244 51.654 31.9587 51.4847 32.0447C51.3154 32.1308 51.1233 32.1645 50.9339 32.1414C50.7445 32.1184 50.5668 32.0396 50.4242 31.9156C50.2817 31.7916 50.1811 31.6281 50.1357 31.4469C50.0904 31.2657 50.1024 31.0754 50.1703 30.901C50.2382 30.7267 50.3587 30.5767 50.5158 30.4708C50.6729 30.3649 50.8592 30.3081 51.0501 30.3081C51.2841 30.2967 51.5133 30.3757 51.6883 30.528C51.8633 30.6803 51.9701 30.8936 51.9856 31.1221Z" fill="#DA840D"/>
<path d="M52.3413 36.0287C52.3413 36.4062 51.8946 36.713 51.3393 36.713C50.784 36.713 50.3374 36.4062 50.3374 36.0287C50.3374 35.6512 50.784 35.3503 51.3393 35.3503C51.8946 35.3503 52.3413 35.6571 52.3413 36.0287Z" fill="#DA840D"/>
<path d="M48.3462 28.7143C48.3356 28.8504 48.2847 28.9805 48.1996 29.0887C48.1146 29.197 47.999 29.2787 47.8672 29.3237C47.7354 29.3688 47.593 29.3754 47.4575 29.3426C47.3219 29.3098 47.199 29.2391 47.104 29.1391C47.0089 29.0392 46.9457 28.9143 46.9221 28.7798C46.8985 28.6452 46.9155 28.5069 46.9711 28.3817C47.0267 28.2565 47.1185 28.1499 47.2351 28.0748C47.3518 27.9998 47.4883 27.9596 47.6279 27.9592C47.8254 27.9669 48.0117 28.0506 48.1463 28.1921C48.2809 28.3335 48.3527 28.5212 48.3462 28.7143Z" fill="#DA840D"/>
<path d="M58.7393 30.1485C58.7393 30.5261 58.3047 30.8328 57.7675 30.8328C57.2303 30.8328 56.7958 30.5261 56.7958 30.1485C56.7958 29.771 57.2303 29.4938 57.7675 29.4938C58.3047 29.4938 58.7393 29.771 58.7393 30.1485Z" fill="#DA840D"/>
<path d="M58.7393 33.6814C58.7393 33.9056 58.3047 34.0884 57.7675 34.0884C57.2303 34.0884 56.7958 33.9056 56.7958 33.6814C56.7958 33.4573 57.2303 33.2744 57.7675 33.2744C58.3047 33.2744 58.7393 33.4573 58.7393 33.6814Z" fill="#DA840D"/>
<path d="M65.3117 31.3816C65.3117 31.6883 64.9194 31.9361 64.4305 31.9361C63.9416 31.9361 63.5493 31.6883 63.5493 31.3816C63.5493 31.0749 63.9477 30.833 64.4305 30.833C64.9134 30.833 65.3117 31.0808 65.3117 31.3816Z" fill="#DA840D"/>
<path d="M64.262 35.3221C64.3058 35.5069 64.2897 35.7004 64.216 35.8759C64.1422 36.0514 64.0145 36.2001 63.8504 36.3015C63.6863 36.4028 63.494 36.4517 63.3002 36.4415C63.1064 36.4313 62.9206 36.3624 62.7686 36.2443C62.6167 36.1263 62.506 35.965 62.4521 35.7828C62.3981 35.6005 62.4034 35.4064 62.4674 35.2273C62.5313 35.0482 62.6507 34.8929 62.809 34.7831C62.9672 34.6732 63.1565 34.6142 63.3506 34.6142C63.5673 34.5909 63.7847 34.6523 63.9554 34.7848C64.126 34.9174 64.2362 35.1105 64.262 35.3221Z" fill="#DA840D"/>
<path d="M71.5774 34.2129C71.5335 34.3848 71.4412 34.5413 71.3109 34.6647C71.1807 34.788 71.0178 34.8733 70.8405 34.9108C70.6633 34.9484 70.4788 34.9367 70.308 34.8771C70.1372 34.8175 69.9869 34.7124 69.8741 34.5737C69.7612 34.4349 69.6903 34.2681 69.6694 34.092C69.6485 33.916 69.6785 33.7377 69.7559 33.5774C69.8333 33.4171 69.955 33.2812 70.1073 33.185C70.2596 33.0888 70.4365 33.0362 70.6178 33.0331C70.7612 33.0461 70.9005 33.0874 71.0272 33.1544C71.1539 33.2214 71.2654 33.3127 71.3551 33.4229C71.4447 33.5332 71.5106 33.6599 71.5488 33.7957C71.5871 33.9314 71.5968 34.0733 71.5774 34.2129Z" fill="#DA840D"/>
<path d="M71.0526 29.046C71.0526 29.282 70.7448 29.4707 70.3645 29.4707C69.9843 29.4707 69.6825 29.282 69.6825 29.046C69.6825 28.8101 69.9843 28.6272 70.3645 28.6272C70.7448 28.6272 71.0526 28.816 71.0526 29.046Z" fill="#DA840D"/>
<path d="M76.8467 30.2789C76.8467 31.1932 76.4302 31.9364 75.9172 31.9364C75.4042 31.9364 74.9938 31.1932 74.9938 30.2789C74.9938 29.3646 75.4102 28.6272 75.9172 28.6272C76.4242 28.6272 76.8467 29.3705 76.8467 30.2789Z" fill="#DA840D"/>
<path d="M79.1646 28.6037C79.1634 28.6898 79.1362 28.7736 79.0864 28.8446C79.0366 28.9156 78.9664 28.9706 78.8847 29.0028C78.803 29.0349 78.7133 29.0427 78.6271 29.0252C78.5409 29.0077 78.4618 28.9657 78.4 28.9044C78.3381 28.8431 78.2961 28.7653 78.2794 28.6808C78.2626 28.5963 78.2718 28.5088 78.3058 28.4294C78.3398 28.35 78.397 28.2821 78.4704 28.2344C78.5437 28.1867 78.6298 28.1613 78.7179 28.1613C78.777 28.1612 78.8356 28.1727 78.8902 28.195C78.9448 28.2173 78.9943 28.25 79.0359 28.2912C79.0774 28.3324 79.1102 28.3812 79.1323 28.4348C79.1544 28.4885 79.1654 28.5459 79.1646 28.6037Z" fill="#DA840D"/>
<path d="M63.942 27.1873C63.942 27.612 63.3807 27.96 62.6866 27.96C61.9925 27.96 61.4252 27.612 61.4252 27.1873C61.4252 26.7625 61.9865 26.4204 62.6866 26.4204C63.3867 26.4204 63.942 26.7625 63.942 27.1873Z" fill="#DA840D"/>
<path d="M40.2825 23.2175C40.2825 23.4771 39.8419 23.6894 39.2987 23.6894C38.7555 23.6894 38.3088 23.4771 38.3088 23.2175C38.3088 22.958 38.7494 22.7456 39.2987 22.7456C39.8479 22.7456 40.2825 22.958 40.2825 23.2175Z" fill="#DA840D"/>
<path d="M46.0763 22.2673C46.0763 22.5328 45.5753 22.7451 44.9536 22.7451C44.332 22.7451 43.837 22.5328 43.837 22.2673C43.837 22.0019 44.338 21.7954 44.9536 21.7954C45.5693 21.7954 46.0763 22.0078 46.0763 22.2673Z" fill="#DA840D"/>
<path d="M53.3673 23.424C53.3673 23.8015 52.6913 24.1082 51.8524 24.1082C51.0134 24.1082 50.3374 23.8015 50.3374 23.424C50.3374 23.0464 51.0194 22.7456 51.8524 22.7456C52.6853 22.7456 53.3673 23.0464 53.3673 23.424Z" fill="#DA840D"/>
<path d="M58.7391 22.2676C58.7403 22.3626 58.7125 22.4558 58.6592 22.5352C58.606 22.6147 58.5297 22.6769 58.4401 22.7138C58.3505 22.7507 58.2517 22.7606 58.1563 22.7424C58.0609 22.7241 57.9733 22.6785 57.9045 22.6113C57.8358 22.5441 57.7891 22.4585 57.7705 22.3652C57.7518 22.272 57.762 22.1755 57.7997 22.0879C57.8375 22.0004 57.9011 21.9258 57.9824 21.8738C58.0637 21.8217 58.159 21.7945 58.2562 21.7957C58.3843 21.7957 58.5071 21.8454 58.5977 21.9339C58.6882 22.0224 58.7391 22.1424 58.7391 22.2676Z" fill="#DA840D"/>
<path d="M57.7675 26.0011C57.7675 26.2312 57.3087 26.4199 56.7353 26.4199C56.162 26.4199 55.7032 26.2312 55.7032 26.0011C55.7032 25.7711 56.168 25.5764 56.7353 25.5764C57.3027 25.5764 57.7675 25.7652 57.7675 26.0011Z" fill="#DA840D"/>
<path d="M65.8376 22.0614C65.8388 22.1981 65.7984 22.3321 65.7215 22.4464C65.6447 22.5607 65.5348 22.6501 65.4059 22.7032C65.277 22.7563 65.1348 22.7708 64.9974 22.7449C64.86 22.7189 64.7336 22.6537 64.6343 22.5574C64.5349 22.4611 64.4671 22.3381 64.4393 22.2041C64.4116 22.0701 64.4252 21.931 64.4785 21.8045C64.5317 21.6781 64.6222 21.5699 64.7385 21.4938C64.8547 21.4177 64.9915 21.3771 65.1314 21.3771C65.2239 21.3763 65.3156 21.3934 65.4012 21.4275C65.4869 21.4615 65.5647 21.5118 65.6304 21.5754C65.6961 21.639 65.7482 21.7147 65.7837 21.7981C65.8193 21.8815 65.8376 21.971 65.8376 22.0614Z" fill="#DA840D"/>
<path d="M69.6815 24.8455C69.6815 24.9576 69.3193 25.052 68.8787 25.052C68.4381 25.052 68.082 24.9576 68.082 24.8455C68.082 24.7335 68.4381 24.6332 68.8787 24.6332C69.3193 24.6332 69.6815 24.7276 69.6815 24.8455Z" fill="#DA840D"/>
<path d="M72.1873 23.453C72.2024 23.5149 72.1973 23.5799 72.1729 23.6388C72.1485 23.6978 72.106 23.7479 72.0511 23.7822C71.9963 23.8165 71.9319 23.8333 71.8669 23.8302C71.8019 23.8272 71.7395 23.8045 71.6883 23.7652C71.6371 23.7259 71.5996 23.6721 71.5811 23.6111C71.5626 23.5501 71.5639 23.485 71.5849 23.4248C71.6059 23.3646 71.6456 23.3123 71.6983 23.2751C71.7511 23.2378 71.8144 23.2176 71.8795 23.2171C71.952 23.2103 72.0244 23.231 72.0817 23.2749C72.139 23.3188 72.1768 23.3826 72.1873 23.453Z" fill="#DA840D"/>
<path d="M69.6824 24.8448C69.6684 24.9727 69.6168 25.0939 69.5339 25.1939C69.451 25.2938 69.3402 25.3681 69.215 25.4079C69.0898 25.4477 68.9555 25.4512 68.8284 25.418C68.7012 25.3848 68.5865 25.3164 68.4982 25.221C68.41 25.1255 68.3518 25.0072 68.3309 24.8802C68.3099 24.7531 68.327 24.6229 68.3801 24.5052C68.4331 24.3875 68.5199 24.2873 68.63 24.2167C68.7401 24.1461 68.8687 24.1081 69.0003 24.1074C69.0947 24.112 69.1872 24.1346 69.2726 24.1742C69.358 24.2137 69.4345 24.2693 69.4979 24.3378C69.5612 24.4063 69.6101 24.4863 69.6418 24.5733C69.6735 24.6603 69.6872 24.7526 69.6824 24.8448Z" fill="#DA840D"/>
<path d="M73.5572 23.6596C73.5572 23.9073 73.183 24.1079 72.7182 24.1079C72.2535 24.1079 71.8793 23.9073 71.8793 23.6596C71.8793 23.4118 72.2535 23.2172 72.7182 23.2172C73.183 23.2172 73.5572 23.4177 73.5572 23.6596Z" fill="#DA840D"/>
<path d="M91.9595 24.2383C91.1146 16.9119 75.977 11.0839 57.4233 11.0839C40.0647 11.0839 25.6997 16.1864 23.2251 22.8343C22.6534 23.7328 22.3445 24.7671 22.3318 25.8251C22.3318 33.4463 38.3264 41.0617 57.4233 41.0617C76.5202 41.0617 92.382 33.9831 92.382 26.35C92.3808 25.6262 92.2373 24.9093 91.9595 24.2383Z" fill="#C66720"/>
<path d="M94.0908 22.9169C94.0908 30.5382 77.5288 37.6286 57.5929 37.6286C37.657 37.6286 20.9744 30.0132 20.9744 22.4155C20.9744 14.8178 37.657 10.028 57.5929 10.028C77.5288 10.028 94.0908 15.2956 94.0908 22.9169Z" fill="#E3AC8A"/>
<path d="M93.7706 21.4482C93.7706 29.0695 78.0778 34.8268 58.16 34.8268C38.2422 34.8268 22.0665 28.6507 22.0665 21.0294C22.0665 13.4081 38.2241 7.23206 58.16 7.23206C78.0959 7.23206 93.7706 13.827 93.7706 21.4482Z" fill="#DA840D"/>
<path d="M57.0737 30.3728C71.8641 30.3728 83.8541 25.7906 83.8541 20.1383C83.8541 14.4859 71.8641 9.90381 57.0737 9.90381C42.2833 9.90381 30.2933 14.4859 30.2933 20.1383C30.2933 25.7906 42.2833 30.3728 57.0737 30.3728Z" fill="#F0A508"/>
<path d="M39.0449 23.9129C39.0449 24.5028 38.3629 25.0219 37.5239 25.0219C36.685 25.0219 36.0029 24.5264 36.0029 23.9129C36.0029 23.2994 36.685 22.8098 37.5239 22.8098C38.3629 22.8098 39.0449 23.3053 39.0449 23.9129Z" fill="#DA840D"/>
<path d="M36.0027 19.2703C35.9944 19.4328 35.9376 19.5893 35.8392 19.7206C35.7408 19.8518 35.6052 19.952 35.4491 20.0086C35.2931 20.0653 35.1234 20.076 34.9612 20.0394C34.799 20.0028 34.6513 19.9205 34.5365 19.8027C34.4217 19.6849 34.3447 19.5367 34.3152 19.3766C34.2856 19.2165 34.3047 19.0514 34.3702 18.9019C34.4357 18.7523 34.5446 18.6247 34.6835 18.535C34.8224 18.4453 34.9852 18.3974 35.1516 18.3972C35.2663 18.3995 35.3794 18.424 35.4843 18.4692C35.5893 18.5143 35.684 18.5794 35.7632 18.6606C35.8423 18.7417 35.9042 18.8374 35.9453 18.942C35.9864 19.0466 36.0059 19.1582 36.0027 19.2703Z" fill="#DA840D"/>
<path d="M46.5895 25.2577C46.6064 25.543 46.5353 25.8266 46.3854 26.072C46.2356 26.3174 46.0138 26.5131 45.7488 26.6339C45.4839 26.7548 45.1879 26.7951 44.8992 26.7497C44.6106 26.7043 44.3425 26.5752 44.1297 26.3793C43.9169 26.1833 43.7691 25.9295 43.7056 25.6505C43.642 25.3716 43.6656 25.0805 43.7732 24.8148C43.8808 24.5491 44.0676 24.3211 44.3093 24.1603C44.5509 23.9994 44.8365 23.9132 45.1288 23.9127C45.3151 23.9072 45.5007 23.9377 45.6749 24.0023C45.8492 24.0669 46.0087 24.1645 46.1443 24.2894C46.28 24.4143 46.3891 24.5641 46.4655 24.7302C46.5419 24.8964 46.584 25.0756 46.5895 25.2577Z" fill="#DA840D"/>
<path d="M43.391 19.9371C43.391 20.3087 42.9746 20.6036 42.4615 20.6036C41.9485 20.6036 41.5381 20.3087 41.5381 19.9371C41.5381 19.5655 41.9545 19.2705 42.4615 19.2705C42.9685 19.2705 43.391 19.5713 43.391 19.9371Z" fill="#DA840D"/>
<path d="M52.7214 23.0991C52.7435 23.2844 52.7074 23.4718 52.6179 23.6366C52.5284 23.8014 52.3899 23.9357 52.2205 24.0217C52.0512 24.1078 51.8591 24.1415 51.6697 24.1185C51.4804 24.0954 51.3026 24.0166 51.1601 23.8926C51.0175 23.7686 50.9169 23.6051 50.8716 23.4239C50.8262 23.2427 50.8383 23.0524 50.9062 22.878C50.974 22.7037 51.0945 22.5536 51.2516 22.4477C51.4087 22.3418 51.5951 22.2851 51.7859 22.2851C52.0203 22.2722 52.2504 22.3506 52.4258 22.5032C52.6011 22.6558 52.7074 22.8701 52.7214 23.0991Z" fill="#DA840D"/>
<path d="M53.0782 28.0129C53.0782 28.3904 52.6315 28.6971 52.0763 28.6971C51.521 28.6971 51.0743 28.3904 51.0743 28.0129C51.0743 27.6354 51.521 27.3286 52.0763 27.3286C52.6315 27.3286 53.0782 27.6354 53.0782 28.0129Z" fill="#DA840D"/>
<path d="M49.0827 20.6924C49.0722 20.8285 49.0212 20.9587 48.9362 21.0669C48.8511 21.1752 48.7356 21.2568 48.6038 21.3019C48.472 21.347 48.3296 21.3535 48.194 21.3208C48.0585 21.288 47.9356 21.2173 47.8405 21.1173C47.7454 21.0173 47.6822 20.8925 47.6586 20.7579C47.635 20.6234 47.6521 20.4851 47.7077 20.3599C47.7633 20.2347 47.855 20.128 47.9717 20.053C48.0883 19.9779 48.2248 19.9378 48.3645 19.9374C48.4625 19.9404 48.559 19.9624 48.6483 20.0021C48.7375 20.0418 48.8179 20.0983 48.8847 20.1685C48.9515 20.2388 49.0034 20.3212 49.0373 20.4111C49.0713 20.501 49.0868 20.5967 49.0827 20.6924Z" fill="#DA840D"/>
<path d="M59.4759 22.1313C59.4759 22.5088 59.0413 22.8097 58.5041 22.8097C57.9669 22.8097 57.5323 22.5088 57.5323 22.1313C57.5323 21.7538 57.9669 21.447 58.5041 21.447C59.0413 21.447 59.4759 21.7538 59.4759 22.1313Z" fill="#DA840D"/>
<path d="M59.4759 25.6652C59.4759 25.8894 59.0413 26.0722 58.5041 26.0722C57.9669 26.0722 57.5323 25.8894 57.5323 25.6652C57.5323 25.441 57.9669 25.2582 58.5041 25.2582C59.0413 25.2582 59.4759 25.441 59.4759 25.6652Z" fill="#DA840D"/>
<path d="M66.0488 23.3643C66.0488 23.671 65.6505 23.9129 65.1676 23.9129C64.6847 23.9129 64.2864 23.671 64.2864 23.3643C64.2864 23.0576 64.6847 22.8098 65.1676 22.8098C65.6505 22.8098 66.0488 23.0576 66.0488 23.3643Z" fill="#DA840D"/>
<path d="M64.9984 27.3055C65.0422 27.4903 65.0262 27.6839 64.9524 27.8594C64.8786 28.0349 64.7509 28.1836 64.5868 28.2849C64.4227 28.3863 64.2304 28.4352 64.0365 28.425C63.8427 28.4147 63.6569 28.3458 63.505 28.2278C63.353 28.1097 63.2424 27.9484 63.1884 27.7662C63.1344 27.584 63.1398 27.3898 63.2037 27.2107C63.2677 27.0316 63.3871 26.8764 63.5453 26.7665C63.7036 26.6567 63.8929 26.5976 64.087 26.5976C64.3034 26.5759 64.5199 26.6378 64.6902 26.7701C64.8606 26.9024 64.9712 27.0946 64.9984 27.3055Z" fill="#DA840D"/>
<path d="M72.3133 26.1607C72.2757 26.3351 72.1884 26.4955 72.0614 26.6234C71.9344 26.7513 71.7729 26.8414 71.5957 26.8833C71.4185 26.9253 71.2327 26.9173 71.0599 26.8604C70.8871 26.8034 70.7343 26.6999 70.6193 26.5616C70.5042 26.4234 70.4315 26.2561 70.4097 26.0792C70.3878 25.9022 70.4177 25.7229 70.4958 25.5618C70.5738 25.4008 70.697 25.2646 70.851 25.1691C71.0049 25.0736 71.1834 25.0227 71.3658 25.0222C71.6445 25.0534 71.8998 25.19 72.0769 25.4028C72.2539 25.6155 72.3388 25.8876 72.3133 26.1607Z" fill="#DA840D"/>
<path d="M71.7821 21.0287C71.7821 21.2588 71.4804 21.4475 71.1001 21.4475C70.7199 21.4475 70.4181 21.2588 70.4181 21.0287C70.4181 20.7987 70.7199 20.604 71.1001 20.604C71.4804 20.604 71.7821 20.7928 71.7821 21.0287Z" fill="#DA840D"/>
<path d="M77.583 22.2616C77.583 23.1759 77.1666 23.9133 76.6535 23.9133C76.1405 23.9133 75.7301 23.1759 75.7301 22.2616C75.7301 21.3473 76.1466 20.604 76.6535 20.604C77.1605 20.604 77.583 21.3473 77.583 22.2616Z" fill="#DA840D"/>
<path d="M79.9008 20.5864C79.8984 20.6722 79.8702 20.7554 79.8197 20.8256C79.7692 20.8958 79.6987 20.9499 79.6169 20.9812C79.5351 21.0124 79.4457 21.0194 79.3599 21.0012C79.274 20.9831 79.1956 20.9406 79.1343 20.8791C79.0731 20.8176 79.0317 20.7398 79.0154 20.6555C78.9992 20.5712 79.0087 20.484 79.0428 20.4049C79.0769 20.3258 79.1342 20.2584 79.2073 20.2109C79.2805 20.1634 79.3664 20.1381 79.4542 20.1381C79.5136 20.1388 79.5723 20.151 79.627 20.174C79.6816 20.1969 79.731 20.2302 79.7725 20.2718C79.814 20.3134 79.8467 20.3626 79.8687 20.4166C79.8907 20.4706 79.9016 20.5283 79.9008 20.5864Z" fill="#DA840D"/>
<path d="M64.6783 19.17C64.6783 19.5947 64.117 19.9368 63.4229 19.9368C62.7288 19.9368 62.1675 19.5947 62.1675 19.17C62.1675 18.7452 62.7288 18.3972 63.4289 18.3972C64.129 18.3972 64.6783 18.7452 64.6783 19.17Z" fill="#DA840D"/>
<path d="M41.0428 15.1957C41.0428 15.4552 40.6022 15.6676 40.0589 15.6676C39.5157 15.6676 39.0691 15.4552 39.0691 15.1957C39.0691 14.9361 39.5097 14.7238 40.0589 14.7238C40.6082 14.7238 41.0428 14.9361 41.0428 15.1957Z" fill="#DA840D"/>
<path d="M46.8131 14.2512C46.8131 14.5108 46.3121 14.7231 45.6905 14.7231C45.0688 14.7231 44.5739 14.5108 44.5739 14.2512C44.5739 13.9917 45.0748 13.7793 45.6905 13.7793C46.3061 13.7793 46.8131 13.9917 46.8131 14.2512Z" fill="#DA840D"/>
<path d="M54.1042 15.4071C54.1042 15.7847 53.4283 16.0914 52.5893 16.0914C51.7503 16.0914 51.0743 15.7847 51.0743 15.4071C51.0743 15.0296 51.7503 14.7465 52.5893 14.7465C53.4283 14.7465 54.1042 15.0296 54.1042 15.4071Z" fill="#DA840D"/>
<path d="M59.4754 14.2501C59.4766 14.3449 59.449 14.4378 59.396 14.5172C59.343 14.5965 59.2671 14.6587 59.1778 14.6958C59.0886 14.7328 58.9901 14.7431 58.8949 14.7254C58.7997 14.7076 58.712 14.6626 58.643 14.596C58.574 14.5294 58.5269 14.4443 58.5075 14.3514C58.4882 14.2586 58.4975 14.1622 58.5343 14.0746C58.5711 13.9869 58.6338 13.912 58.7143 13.8592C58.7948 13.8064 58.8896 13.7782 58.9865 13.7782C59.0504 13.7775 59.1139 13.7891 59.1732 13.8124C59.2324 13.8358 59.2864 13.8705 59.3319 13.9143C59.3773 13.9582 59.4135 14.0105 59.4381 14.0682C59.4627 14.1258 59.4754 14.1877 59.4754 14.2501Z" fill="#DA840D"/>
<path d="M58.5038 17.979C58.5038 18.215 58.0451 18.3978 57.4717 18.3978C56.8983 18.3978 56.4396 18.215 56.4396 17.979C56.4396 17.743 56.9043 17.5602 57.4717 17.5602C58.039 17.5602 58.5038 17.7489 58.5038 17.979Z" fill="#DA840D"/>
<path d="M66.5738 14.0379C66.5762 14.1749 66.5369 14.3094 66.4607 14.4245C66.3846 14.5395 66.2752 14.6298 66.1464 14.6839C66.0176 14.7379 65.8752 14.7533 65.7375 14.728C65.5997 14.7027 65.4727 14.6379 65.3728 14.5419C65.2728 14.4459 65.2043 14.3229 65.1761 14.1887C65.1479 14.0545 65.1611 13.9152 65.2142 13.7884C65.2673 13.6616 65.3578 13.5531 65.4741 13.4767C65.5905 13.4003 65.7275 13.3595 65.8677 13.3595C65.9596 13.3587 66.0508 13.3757 66.1361 13.4093C66.2213 13.443 66.2989 13.4928 66.3645 13.5558C66.4301 13.6188 66.4823 13.6938 66.5182 13.7765C66.5541 13.8592 66.573 13.948 66.5738 14.0379Z" fill="#DA840D"/>
<path d="M70.4186 16.8222C70.4186 16.9402 70.0564 17.0345 69.6158 17.0345C69.1752 17.0345 68.8191 16.9402 68.8191 16.8222C68.8191 16.7042 69.1752 16.6157 69.6158 16.6157C70.0564 16.6157 70.4186 16.7101 70.4186 16.8222Z" fill="#DA840D"/>
<path d="M72.9233 15.4313C72.9383 15.4932 72.9332 15.5581 72.9088 15.6171C72.8844 15.6761 72.8419 15.7262 72.7871 15.7605C72.7323 15.7948 72.6679 15.8115 72.6029 15.8085C72.5379 15.8054 72.4754 15.7827 72.4242 15.7435C72.373 15.7042 72.3356 15.6504 72.317 15.5894C72.2985 15.5284 72.2999 15.4633 72.3209 15.4031C72.3419 15.3429 72.3815 15.2905 72.4343 15.2533C72.4871 15.2161 72.5504 15.1959 72.6155 15.1954C72.688 15.1886 72.7603 15.2093 72.8176 15.2532C72.8749 15.2971 72.9128 15.3609 72.9233 15.4313Z" fill="#DA840D"/>
<path d="M70.4182 16.823C70.4271 16.9154 70.4162 17.0086 70.3861 17.0966C70.3561 17.1847 70.3075 17.2656 70.2436 17.3342C70.1797 17.4029 70.1018 17.4577 70.0149 17.4952C69.9281 17.5328 69.8341 17.5522 69.7392 17.5522C69.6442 17.5522 69.5503 17.5328 69.4634 17.4952C69.3766 17.4577 69.2987 17.4029 69.2347 17.3342C69.1708 17.2656 69.1223 17.1847 69.0922 17.0966C69.0621 17.0086 69.0512 16.9154 69.0601 16.823C69.0512 16.7305 69.0621 16.6373 69.0922 16.5493C69.1223 16.4613 69.1708 16.3803 69.2347 16.3117C69.2987 16.243 69.3766 16.1882 69.4634 16.1507C69.5503 16.1131 69.6442 16.0938 69.7392 16.0938C69.8341 16.0938 69.9281 16.1131 70.0149 16.1507C70.1018 16.1882 70.1797 16.243 70.2436 16.3117C70.3075 16.3803 70.3561 16.4613 70.3861 16.5493C70.4162 16.6373 70.4271 16.7305 70.4182 16.823Z" fill="#DA840D"/>
<path d="M74.2872 15.6436C74.2872 15.8914 73.9191 16.0919 73.4543 16.0919C72.9896 16.0919 72.6154 15.8914 72.6154 15.6436C72.6154 15.3959 72.9896 15.1953 73.4543 15.1953C73.9191 15.1953 74.2872 15.3959 74.2872 15.6436Z" fill="#DA840D"/>
<path d="M93.9334 15.5673C93.9334 20.2156 87.777 24.6633 78.4519 27.424C71.6239 29.3603 64.545 30.32 57.4356 30.2731C50.0298 30.2731 43.9458 28.3678 37.8015 27.9136C27.5529 27.1349 20.817 19.8322 20.817 15.0423C20.817 7.42104 37.5057 2.65479 57.4356 2.65479C77.3654 2.65479 93.9334 7.94604 93.9334 15.5673Z" fill="#E3AC8A"/>
<path d="M93.475 14.5579C93.475 22.1792 77.3114 28.3552 57.3755 28.3552C37.4397 28.3552 21.2821 22.1792 21.2821 14.5579C21.2821 6.93658 37.4215 0.760498 57.3755 0.760498C77.3296 0.760498 93.475 6.93658 93.475 14.5579Z" fill="#DA840D"/>
<path d="M83.6369 13.2539C83.6369 18.905 71.644 23.4884 56.8565 23.4884C42.0691 23.4884 30.0762 18.905 30.0762 13.2539C30.0762 7.60284 42.0631 3.01355 56.8565 3.01355C71.65 3.01355 83.6369 7.59694 83.6369 13.2539Z" fill="#F0A508"/>
<path d="M38.8279 17.0296C38.8279 17.6195 38.1459 18.1327 37.3069 18.1327C36.4679 18.1327 35.7859 17.6372 35.7859 17.0296C35.7859 16.422 36.4679 15.9265 37.3069 15.9265C38.1459 15.9265 38.8279 16.4161 38.8279 17.0296Z" fill="#DA840D"/>
<path d="M35.7854 12.3876C35.7783 12.5504 35.7225 12.7076 35.6247 12.8397C35.527 12.9717 35.3918 13.0728 35.2358 13.1304C35.0798 13.1879 34.9099 13.1994 34.7473 13.1634C34.5846 13.1275 34.4364 13.0456 34.321 12.928C34.2055 12.8104 34.128 12.6622 34.098 12.5019C34.068 12.3416 34.0868 12.1762 34.1522 12.0263C34.2175 11.8764 34.3265 11.7485 34.4656 11.6586C34.6046 11.5687 34.7676 11.5207 34.9344 11.5205C35.0485 11.5228 35.1611 11.5471 35.2657 11.5919C35.3702 11.6367 35.4647 11.7012 35.5437 11.7818C35.6228 11.8623 35.6848 11.9572 35.7263 12.0612C35.7677 12.1652 35.7878 12.2761 35.7854 12.3876Z" fill="#DA840D"/>
<path d="M46.3722 18.3685C46.3904 18.6539 46.3204 18.9381 46.1713 19.1842C46.0222 19.4303 45.8009 19.627 45.5361 19.7487C45.2713 19.8704 44.9752 19.9116 44.6862 19.867C44.3972 19.8223 44.1285 19.6938 43.9151 19.4981C43.7017 19.3025 43.5533 19.0487 43.4892 18.7696C43.4251 18.4906 43.4483 18.1991 43.5556 17.9331C43.663 17.6671 43.8497 17.4387 44.0915 17.2776C44.3332 17.1164 44.619 17.03 44.9116 17.0294C45.2868 17.0183 45.6512 17.153 45.925 17.404C46.1988 17.655 46.3596 18.0018 46.3722 18.3685Z" fill="#DA840D"/>
<path d="M43.1738 13.0538C43.1738 13.4195 42.7573 13.7203 42.2443 13.7203C41.7312 13.7203 41.3208 13.4195 41.3208 13.0538C41.3208 12.688 41.7373 12.3872 42.2503 12.3872C42.7633 12.3872 43.1738 12.6821 43.1738 13.0538Z" fill="#DA840D"/>
<path d="M52.5107 16.2144C52.5315 16.3984 52.4946 16.5843 52.405 16.7473C52.3153 16.9104 52.1771 17.0431 52.0087 17.1278C51.8402 17.2124 51.6494 17.2451 51.4615 17.2215C51.2737 17.1979 51.0975 17.1191 50.9565 16.9956C50.8154 16.872 50.716 16.7096 50.6715 16.5296C50.627 16.3497 50.6394 16.1607 50.7071 15.9878C50.7748 15.8149 50.8946 15.6662 51.0507 15.5613C51.2068 15.4564 51.3918 15.4003 51.5812 15.4004C51.8146 15.3891 52.0431 15.4682 52.2172 15.6206C52.3912 15.7731 52.4967 15.9864 52.5107 16.2144Z" fill="#DA840D"/>
<path d="M52.8608 21.1223C52.8608 21.4998 52.4141 21.8066 51.8589 21.8066C51.3036 21.8066 50.8569 21.4998 50.8569 21.1223C50.8569 20.7448 51.3036 20.444 51.8589 20.444C52.4141 20.444 52.8608 20.7507 52.8608 21.1223Z" fill="#DA840D"/>
<path d="M48.8893 13.8029C48.8799 13.9393 48.8299 14.0701 48.7455 14.1792C48.6611 14.2882 48.5459 14.3708 48.4141 14.4168C48.2824 14.4628 48.1397 14.4701 48.0037 14.4379C47.8677 14.4057 47.7443 14.3354 47.6486 14.2356C47.5529 14.1358 47.4892 14.0109 47.4651 13.8762C47.4411 13.7415 47.4579 13.6028 47.5134 13.4773C47.5689 13.3517 47.6607 13.2448 47.7775 13.1695C47.8944 13.0943 48.0312 13.054 48.1711 13.0537C48.2686 13.0568 48.3645 13.0786 48.4534 13.1179C48.5423 13.1572 48.6224 13.2132 48.6891 13.2828C48.7558 13.3524 48.8078 13.4341 48.8422 13.5234C48.8765 13.6126 48.8926 13.7076 48.8893 13.8029Z" fill="#DA840D"/>
<path d="M59.2586 15.2419C59.2586 15.6194 58.824 15.9261 58.2868 15.9261C57.7497 15.9261 57.3392 15.6194 57.3392 15.2419C57.3392 14.8644 57.7738 14.5576 58.311 14.5576C58.8482 14.5576 59.2586 14.8644 59.2586 15.2419Z" fill="#DA840D"/>
<path d="M59.2586 18.7749C59.2586 18.9991 58.824 19.182 58.2868 19.182C57.7497 19.182 57.3392 18.9991 57.3392 18.7749C57.3392 18.5508 57.7738 18.3679 58.311 18.3679C58.8482 18.3679 59.2586 18.5508 59.2586 18.7749Z" fill="#DA840D"/>
<path d="M65.8315 16.4751C65.8315 16.7818 65.4332 17.0296 64.9503 17.0296C64.4674 17.0296 64.0691 16.7818 64.0691 16.4751C64.0691 16.1684 64.4674 15.9265 64.9503 15.9265C65.4332 15.9265 65.8315 16.1743 65.8315 16.4751Z" fill="#DA840D"/>
<path d="M64.7815 20.4148C64.7294 20.6107 64.6122 20.7841 64.4483 20.9078C64.2845 21.0316 64.0833 21.0988 63.8762 21.0988C63.6691 21.0988 63.4679 21.0316 63.304 20.9078C63.1402 20.7841 63.023 20.6107 62.9708 20.4148C63.023 20.2189 63.1402 20.0455 63.304 19.9218C63.4679 19.798 63.6691 19.7308 63.8762 19.7308C64.0833 19.7308 64.2845 19.798 64.4483 19.9218C64.6122 20.0455 64.7294 20.2189 64.7815 20.4148Z" fill="#DA840D"/>
<path d="M72.0964 19.2769C72.1238 19.4137 72.12 19.5547 72.0851 19.6898C72.0502 19.8249 71.9851 19.9508 71.8945 20.0585C71.8039 20.1661 71.6901 20.2528 71.5611 20.3123C71.4322 20.3718 71.2913 20.4026 71.1488 20.4026C71.0062 20.4026 70.8653 20.3718 70.7364 20.3123C70.6074 20.2528 70.4936 20.1661 70.403 20.0585C70.3124 19.9508 70.2473 19.8249 70.2124 19.6898C70.1775 19.5547 70.1737 19.4137 70.2011 19.2769C70.1688 19.1379 70.169 18.9935 70.2015 18.8545C70.2341 18.7155 70.2983 18.5855 70.3893 18.474C70.4803 18.3626 70.5959 18.2726 70.7273 18.2108C70.8588 18.1489 71.0028 18.1168 71.1488 18.1168C71.2947 18.1168 71.4387 18.1489 71.5702 18.2108C71.7016 18.2726 71.8172 18.3626 71.9082 18.474C71.9992 18.5855 72.0634 18.7155 72.096 18.8545C72.1285 18.9935 72.1287 19.1379 72.0964 19.2769Z" fill="#DA840D"/>
<path d="M71.565 14.1565C71.565 14.3865 71.2632 14.5753 70.883 14.5753C70.5027 14.5753 70.2009 14.3865 70.2009 14.1565C70.2009 13.9264 70.5027 13.7377 70.883 13.7377C71.2632 13.7377 71.565 13.9087 71.565 14.1565Z" fill="#DA840D"/>
<path d="M77.3653 15.3724C77.3653 16.2867 76.9488 17.03 76.4358 17.03C75.9227 17.03 75.5123 16.2867 75.5123 15.3724C75.5123 14.4581 75.9227 13.7207 76.4358 13.7207C76.9488 13.7207 77.3653 14.4581 77.3653 15.3724Z" fill="#DA840D"/>
<path d="M79.671 13.6972C79.6698 13.7832 79.6426 13.8671 79.5928 13.9381C79.543 14.0091 79.4728 14.0641 79.3911 14.0962C79.3094 14.1284 79.2198 14.1362 79.1335 14.1187C79.0473 14.1012 78.9683 14.0591 78.9064 13.9979C78.8446 13.9366 78.8026 13.8588 78.7859 13.7743C78.7691 13.6898 78.7783 13.6023 78.8123 13.5229C78.8463 13.4435 78.9035 13.3756 78.9768 13.3279C79.0501 13.2802 79.1362 13.2548 79.2243 13.2548C79.3433 13.2563 79.4569 13.3036 79.5405 13.3864C79.6241 13.4692 79.671 13.5809 79.671 13.6972Z" fill="#DA840D"/>
<path d="M64.4612 12.2808C64.4612 12.7055 63.8999 13.0535 63.1998 13.0535C62.4996 13.0535 61.9443 12.7055 61.9443 12.2808C61.9443 11.8561 62.5057 11.5139 63.1998 11.5139C63.8939 11.5139 64.4612 11.8561 64.4612 12.2808Z" fill="#DA840D"/>
<path d="M40.8016 8.3113C40.8016 8.57085 40.3609 8.78321 39.8117 8.78321C39.2624 8.78321 38.8279 8.57085 38.8279 8.3113C38.8279 8.05175 39.2685 7.8335 39.8117 7.8335C40.3549 7.8335 40.8016 8.04585 40.8016 8.3113Z" fill="#DA840D"/>
<path d="M46.5956 7.36082C46.5956 7.62627 46.0946 7.83273 45.473 7.83273C44.8513 7.83273 44.3503 7.62627 44.3503 7.36082C44.3503 7.09538 44.8573 6.88892 45.473 6.88892C46.0886 6.88892 46.5956 7.07768 46.5956 7.36082Z" fill="#DA840D"/>
<path d="M53.8868 8.51776C53.8868 8.89529 53.2108 9.20203 52.3719 9.20203C51.5329 9.20203 50.8569 8.89529 50.8569 8.51776C50.8569 8.14024 51.5329 7.8335 52.3719 7.8335C53.2108 7.8335 53.8868 8.14024 53.8868 8.51776Z" fill="#DA840D"/>
<path d="M59.2583 7.36122C59.2595 7.45597 59.2318 7.54892 59.1788 7.62827C59.1258 7.70761 59.0499 7.76977 58.9607 7.80684C58.8715 7.84391 58.773 7.85422 58.6777 7.83645C58.5825 7.81869 58.4948 7.77365 58.4259 7.70707C58.3569 7.64049 58.3097 7.55537 58.2904 7.46253C58.271 7.36969 58.2803 7.27332 58.3171 7.18566C58.354 7.09801 58.4166 7.02304 58.4971 6.97027C58.5777 6.9175 58.6724 6.88933 58.7694 6.88932C58.8333 6.88854 58.8967 6.90017 58.956 6.92353C59.0153 6.9469 59.0692 6.98154 59.1147 7.02543C59.1602 7.06933 59.1963 7.12162 59.2209 7.17926C59.2456 7.2369 59.2583 7.29875 59.2583 7.36122Z" fill="#DA840D"/>
<path d="M58.2864 11.0946C58.2864 11.3247 57.8216 11.5135 57.2543 11.5135C56.6869 11.5135 56.2222 11.3247 56.2222 11.0946C56.2222 10.8646 56.6869 10.6699 57.2543 10.6699C57.8216 10.6699 58.2864 10.8587 58.2864 11.0946Z" fill="#DA840D"/>
<path d="M66.3507 7.15512C66.3543 7.29115 66.3164 7.42514 66.2417 7.53997C66.1669 7.6548 66.0589 7.74526 65.9313 7.79977C65.8037 7.85428 65.6624 7.87039 65.5254 7.84602C65.3885 7.82165 65.262 7.75791 65.1623 7.66296C65.0625 7.56801 64.994 7.44614 64.9655 7.31295C64.937 7.17976 64.9498 7.04128 65.0022 6.91521C65.0546 6.78914 65.1443 6.68121 65.2598 6.60521C65.3753 6.52922 65.5114 6.4886 65.6506 6.48855C65.8337 6.48697 66.0099 6.55613 66.1411 6.68097C66.2722 6.80581 66.3476 6.97623 66.3507 7.15512Z" fill="#DA840D"/>
<path d="M70.2007 9.93917C70.2007 10.0512 69.8386 10.1456 69.398 10.1456C68.9574 10.1456 68.5952 10.0512 68.5952 9.93917C68.5952 9.82709 68.9574 9.72681 69.398 9.72681C69.8386 9.72681 70.2007 9.82119 70.2007 9.93917Z" fill="#DA840D"/>
<path d="M72.7058 8.54667C72.7208 8.60856 72.7158 8.67349 72.6914 8.73246C72.6669 8.79143 72.6244 8.84153 72.5696 8.87581C72.5147 8.9101 72.4504 8.92688 72.3854 8.92383C72.3204 8.92079 72.2579 8.89806 72.2067 8.85881C72.1555 8.81955 72.118 8.7657 72.0995 8.70472C72.081 8.64374 72.0823 8.57864 72.1033 8.51844C72.1244 8.45823 72.164 8.4059 72.2168 8.36868C72.2696 8.33147 72.3329 8.31121 72.398 8.31072C72.4705 8.30392 72.5428 8.32462 72.6001 8.36854C72.6574 8.41247 72.6953 8.47624 72.7058 8.54667Z" fill="#DA840D"/>
<path d="M70.2011 9.93926C70.1871 10.0672 70.1356 10.1884 70.0527 10.2883C69.9697 10.3883 69.859 10.4626 69.7338 10.5024C69.6086 10.5422 69.4743 10.5457 69.3471 10.5125C69.22 10.4793 69.1053 10.4109 69.017 10.3155C68.9288 10.22 68.8706 10.1017 68.8497 9.97465C68.8287 9.84763 68.8458 9.7174 68.8989 9.59967C68.9519 9.48194 69.0387 9.38174 69.1488 9.31116C69.2589 9.24058 69.3875 9.20263 69.5191 9.2019C69.6135 9.20644 69.706 9.22912 69.7914 9.26865C69.8767 9.30818 69.9533 9.36379 70.0167 9.43228C70.08 9.50078 70.1289 9.58081 70.1606 9.66781C70.1922 9.75481 70.206 9.84705 70.2011 9.93926Z" fill="#DA840D"/>
<path d="M74.0696 8.75308C74.0696 9.00083 73.6954 9.20139 73.2367 9.20139C72.778 9.20139 72.3977 9.00083 72.3977 8.75308C72.3977 8.50533 72.7719 8.31067 73.2367 8.31067C73.7014 8.31067 74.0696 8.50533 74.0696 8.75308Z" fill="#DA840D"/>
<path d="M62.8554 45.6155C62.7186 45.106 62.4004 44.6609 61.9578 44.3603C61.5152 44.0597 60.9774 43.9233 60.4411 43.9757C56.8197 44.2293 56.5179 50.1576 57.7914 52.7472C58.1705 53.0338 58.6475 53.1678 59.1244 53.1217C59.6014 53.0756 60.0422 52.853 60.3566 52.4995C61.5155 51.2312 61.8836 49.3967 62.2941 47.7804C62.4953 47.0647 62.6824 46.3431 62.8554 45.6155Z" fill="#EEBE30"/>
<path d="M89.7389 14.8114C88.4796 14.3357 87.3184 13.6424 86.3106 12.7645C85.1063 11.6231 83.9962 10.3903 82.991 9.07771C81.4881 7.27267 79.3032 6.56481 77.0096 6.29936C74.4565 5.99852 71.8189 6.55301 69.2477 6.42323C67.8688 6.38654 66.5175 6.03718 65.3004 5.40274C64.0932 4.73027 63.1456 3.63309 62.1135 2.68337C60.0915 0.913723 57.5264 0.913723 54.9733 0.512602C53.2821 0.220839 51.5716 0.049323 49.855 -0.000596554C48.0986 -0.0418884 45.0265 -0.0654837 43.8495 1.56849C42.5458 2.15838 42.0871 3.72747 41.7913 5.04881C41.6247 6.13908 41.3601 7.21289 41.0007 8.25777C40.4644 9.44611 39.6348 10.4859 38.5864 11.2839C36.2868 13.1538 33.444 14.1566 30.8426 15.4602C28.7301 16.5161 26.1408 18.0144 25.0061 20.1321C24.324 21.4004 24.4025 23.5711 25.6096 24.5091C27.1005 25.6298 28.2352 23.5181 28.5551 22.4504C28.8508 21.483 28.9594 20.4979 29.7622 19.7723C30.8436 18.8548 32.129 18.1963 33.5164 17.8493C34.6813 17.5307 35.9307 17.5307 37.0775 17.1827C38.454 16.6763 39.7488 15.979 40.9222 15.1122C42.2983 14.2156 43.6383 13.3426 45.2739 12.9532C46.632 12.6465 48.7324 12.6937 49.8007 13.7083C50.3866 14.4019 50.8908 15.1578 51.3036 15.9617C51.8542 16.7114 52.5834 17.3188 53.4281 17.7313C55.1302 18.681 57.0797 19.0998 58.8603 19.9611C59.4557 20.2636 59.9688 20.7003 60.3571 21.2352C60.4175 21.3237 60.4718 21.4122 60.5261 21.5066C60.5699 21.5733 60.6102 21.6423 60.6468 21.713C62.5903 25.2169 60.1459 28.9273 60.2123 32.6259C60.2123 34.6197 61.691 37.8817 64.1898 36.2831C64.3588 36.177 64.5157 36.059 64.6726 35.941C64.9563 33.3573 65.1857 30.7087 66.1031 28.2725C66.9662 26.0074 68.1432 23.9133 68.0164 21.4181C67.944 20.0436 67.274 18.7813 67.1111 17.4246C66.8817 15.5369 68.62 14.6816 70.1832 14.31C72.4137 13.7299 74.7778 13.8875 76.907 14.7583C80.9147 16.3687 84.1498 19.6897 88.6042 20.2383C90.3666 20.4566 92.9197 20.1852 93.6198 18.3035C94.32 16.4218 90.9943 15.3364 89.7389 14.8114Z" fill="#EEBE30"/>
<path opacity="0.5" d="M65.2155 17.272C65.0327 16.6361 64.6951 16.0529 64.2315 15.5722C63.768 15.0914 63.1924 14.7275 62.5538 14.5113C61.6363 14.2754 60.1878 14.8711 60.3024 15.9565C60.3041 15.9782 60.3103 15.9994 60.3207 16.0187C60.3311 16.038 60.3454 16.0549 60.3628 16.0686C59.7592 17.3251 61.5096 19.4899 62.1132 20.4101C62.5552 20.9993 62.8339 21.6902 62.9219 22.4157C63.0246 23.3537 62.7167 24.2798 62.8073 25.2059C62.8435 25.6188 63.1634 27.3826 64.0144 26.6747C64.9862 25.8725 65.0888 24.0556 65.288 22.9112C65.6895 21.0493 65.6647 19.1235 65.2155 17.272Z" fill="white"/>
<path opacity="0.5" d="M82.7673 11.1656C81.7804 9.56555 80.2071 8.39283 78.3672 7.88585C76.5082 7.36085 72.0479 6.79456 71.5771 9.45494C71.5732 9.50865 71.5869 9.56218 71.6162 9.60778C71.6455 9.65338 71.6888 9.68869 71.74 9.70859C71.8591 9.79342 71.9648 9.89477 72.0539 10.0094C72.0792 10.0576 72.1193 10.0968 72.1686 10.1215C72.2173 10.1386 72.2707 10.1386 72.3195 10.1215C72.6641 10.4301 73.0773 10.6563 73.5266 10.7822C74.6331 11.0217 75.7614 11.1521 76.8945 11.1715C78.4638 11.319 79.339 11.9796 80.4314 13.006C81.035 13.5959 82.6888 14.8347 83.5398 13.8968C84.1917 13.2361 83.1234 11.7083 82.7673 11.1656Z" fill="white"/>
<path opacity="0.5" d="M29.1284 18.5754C28.8639 18.543 28.5963 18.543 28.3317 18.5754C28.3328 18.5637 28.3311 18.552 28.3269 18.5411C28.3226 18.5302 28.3158 18.5204 28.3071 18.5124C28.2984 18.5045 28.2879 18.4986 28.2765 18.4952C28.2651 18.4918 28.253 18.4909 28.2412 18.4928C27.8 18.5615 27.3812 18.7294 27.0178 18.9833C26.6544 19.2371 26.3562 19.57 26.1468 19.9557C26.002 20.2506 25.7183 21.2829 26.34 21.336C26.9616 21.3891 27.4505 20.7461 27.8006 20.4099C28.308 19.8981 28.7875 19.3606 29.2371 18.7995C29.2504 18.7786 29.2582 18.7547 29.2596 18.73C29.2611 18.7054 29.2561 18.6808 29.2453 18.6585C29.2345 18.6362 29.2182 18.6169 29.1977 18.6023C29.1773 18.5878 29.1535 18.5786 29.1284 18.5754Z" fill="white"/>
<path opacity="0.5" d="M101.931 52.5876C101.396 52.4764 100.844 52.4712 100.307 52.5723C99.7696 52.6735 99.2589 52.8789 98.8047 53.1765C98.3505 53.4741 97.962 53.8578 97.6623 54.3048C97.3626 54.7518 97.1577 55.2531 97.0599 55.7789C97.0563 55.7978 97.057 55.8172 97.0621 55.8358C97.0671 55.8544 97.0763 55.8716 97.0891 55.8863C97.1018 55.901 97.1176 55.9127 97.1356 55.9207C97.1535 55.9286 97.173 55.9326 97.1926 55.9322C97.1955 55.9715 97.1955 56.0109 97.1926 56.0502C96.9814 56.9704 95.8648 57.3952 95.1586 57.7845C94.6335 58.0676 94.0903 58.3213 93.5471 58.5808C91.7364 59.4774 88.8875 60.6336 88.3262 63.0108C88.3172 63.0367 88.3164 63.0646 88.324 63.0909C88.3315 63.1173 88.347 63.1407 88.3684 63.1583C89.4549 63.8898 90.7043 62.7985 91.5553 62.1142C93.2727 60.7842 95.2868 59.8687 97.4341 59.442C99.8121 58.9347 104.248 59.0881 105.105 55.9027C105.625 53.9266 103.325 52.8295 101.931 52.5876Z" fill="white"/>
<path d="M63.0306 6.83592C62.8194 6.54688 62.2822 5.9275 61.92 5.88621C61.7148 5.88621 61.6364 5.48509 61.4432 5.54408C61.2501 5.60307 60.9543 5.75054 60.6887 5.54408C60.5996 5.46299 60.5049 5.38809 60.4051 5.31992C60.3496 5.28189 60.2862 5.25635 60.2194 5.24513C60.1526 5.23391 60.0841 5.23729 60.0188 5.25503C59.8498 5.31992 59.7834 5.56767 59.5782 5.4084C59.373 5.24914 58.8841 5.49099 58.7634 5.72694C58.7227 5.79166 58.6902 5.86099 58.6668 5.9334C57.9485 6.03368 57.2242 7.11317 56.9526 7.61457C56.6987 8.09709 56.5801 8.63671 56.6087 9.17858C56.6373 9.72045 56.8122 10.2453 57.1156 10.6997C57.7735 11.7968 59.1134 11.9443 60.2964 11.9797C60.7626 12.0325 61.2348 11.9924 61.6846 11.8617C62.1007 11.6834 62.461 11.4005 62.7288 11.0418C63.9239 9.60248 64.1532 8.35192 63.0306 6.83592Z" fill="#48264C"/>
<path d="M63.0307 6.83651C62.8247 6.55272 62.5811 6.29685 62.3064 6.07556C62.3316 7.05031 62.0094 8.00333 61.3951 8.77161C60.7807 9.53988 59.9124 10.0757 58.9385 10.2873C58.2516 10.4349 57.538 10.4126 56.8622 10.2224C56.9345 10.3933 57.0192 10.5589 57.1157 10.7179C57.7736 11.8151 59.1135 11.9626 60.2965 11.998C60.7626 12.0508 61.2349 12.0107 61.6847 11.88C62.1008 11.7017 62.4611 11.4187 62.7289 11.0601C63.924 9.60306 64.1533 8.35251 63.0307 6.83651Z" fill="#300D33"/>
<path d="M64.0928 65.5525C63.8987 65.0655 63.5859 64.6322 63.1814 64.2902C63.115 63.9245 63.0305 63.5646 62.9521 63.1989C62.9458 63.1632 62.9314 63.1293 62.9099 63.0997C62.8885 63.0702 62.8605 63.0457 62.828 63.0281C62.7956 63.0106 62.7595 63.0004 62.7225 62.9983C62.6854 62.9962 62.6484 63.0023 62.6141 63.016C62.0709 63.2638 61.9501 62.9453 61.5759 62.6562C61.516 62.6202 61.4471 62.6012 61.3768 62.6012C61.3064 62.6012 61.2375 62.6202 61.1776 62.6562C60.574 63.0573 59.9342 62.1076 59.4634 62.6562C59.1881 63.0697 58.8835 63.4639 58.5521 63.836C58.1602 64.0781 57.7995 64.3652 57.4777 64.6913C57.2464 64.8923 57.0434 65.1224 56.8741 65.3756C56.8059 65.4824 56.7435 65.5927 56.687 65.7059C56.6387 65.8121 56.5965 65.9242 56.5603 66.0303C56.5577 66.042 56.5577 66.0541 56.5603 66.0657C56.316 66.8365 56.3308 67.6634 56.6025 68.4253C57.0612 69.7879 58.5098 70.2716 59.8075 70.5842C60.3095 70.753 60.8412 70.8212 61.3707 70.7848C61.8773 70.6832 62.3477 70.4534 62.7348 70.1182C64.4006 68.8205 64.9559 67.4933 64.0928 65.5525Z" fill="#48264C"/>
<path d="M64.0931 65.5526C63.9388 65.1916 63.7358 64.8524 63.4895 64.5439C63.2765 65.628 62.6842 66.6058 61.8143 67.3097C60.9443 68.0136 59.8508 68.3997 58.7214 68.4018C57.9223 68.4033 57.1358 68.2086 56.4338 67.8355C56.472 68.0355 56.5245 68.2326 56.5908 68.4254C57.0495 69.788 58.498 70.2717 59.7957 70.5844C60.2977 70.7531 60.8294 70.8213 61.3589 70.7849C61.8655 70.6834 62.3359 70.4535 62.723 70.1184C64.4009 68.8206 64.9562 67.4934 64.0931 65.5526Z" fill="#300D33"/>
<path d="M53.1803 5.80975C52.9932 5.44992 52.5104 4.66538 52.112 4.5533C51.9068 4.50021 51.9068 4.12858 51.7076 4.09319C51.6473 3.56229 51.3998 3.0078 50.7661 3.11988C50.6212 3.11988 50.2349 3.5151 50.084 3.29095C50.01 3.15851 49.8902 3.05608 49.746 3.0019C49.4503 2.88983 49.1908 3.14347 49.0218 3.33814C48.7381 3.66257 48.3759 3.18477 48.0078 3.33814C47.8315 3.4398 47.6879 3.58755 47.593 3.76473C47.4981 3.94191 47.4557 4.14148 47.4706 4.34094C47.4706 4.37633 47.4706 4.39993 47.4706 4.43532C47.0151 4.77296 46.6089 5.16989 46.2635 5.61509C45.8898 6.10634 45.6561 6.6856 45.5862 7.29386C45.5162 7.90212 45.6124 8.51764 45.8651 9.07771C46.3962 10.4167 47.8689 10.8474 49.1787 11.0774C49.6729 11.2134 50.1888 11.2574 50.6997 11.2072C51.1975 11.079 51.6529 10.827 52.0215 10.4757C53.6572 9.05411 54.14 7.70328 53.1803 5.80975Z" fill="#48264C"/>
<path d="M53.1805 5.80916C52.9992 5.45706 52.7742 5.12817 52.5105 4.82996C52.3596 5.92827 51.8224 6.94102 50.9909 7.69446C50.1594 8.44789 49.0855 8.89502 47.9536 8.95914C47.1589 8.99935 46.3664 8.84527 45.6479 8.51083C45.6959 8.71156 45.7584 8.90868 45.8351 9.10071C46.3662 10.4397 47.8389 10.8704 49.1486 11.1004C49.654 11.2322 50.1806 11.2683 50.6998 11.2066C51.1976 11.0784 51.653 10.8264 52.0216 10.4751C53.6573 9.05352 54.1401 7.70269 53.1805 5.80916Z" fill="#300D33"/>
<path d="M76.6527 10.5761C76.4656 10.1219 75.9526 9.12497 75.4939 8.9598C75.2344 8.87132 75.2464 8.33453 74.9809 8.36992C74.6187 8.40531 74.2747 8.49969 73.991 8.16346C73.9012 8.0294 73.8024 7.90131 73.6953 7.78004C73.6366 7.7111 73.5626 7.65614 73.4789 7.61935C73.3953 7.58255 73.3041 7.56488 73.2124 7.56768C72.971 7.60897 72.808 7.92751 72.6088 7.64436C72.3252 7.26684 71.6793 7.54998 71.45 7.83312C71.379 7.90918 71.3163 7.99221 71.2629 8.08088C70.2972 8.00419 69.0236 9.26064 68.5227 9.85053C68.045 10.4354 67.7278 11.1296 67.601 11.8676C67.4743 12.6056 67.5422 13.363 67.7984 14.0682C68.3175 15.7494 70.0256 16.3569 71.5466 16.764C72.1265 16.9668 72.7424 17.0531 73.3573 17.0176C73.9591 16.8985 74.5163 16.6211 74.9688 16.2154C76.9968 14.5873 77.6728 12.9769 76.6527 10.5761Z" fill="#48264C"/>
<path d="M76.6532 10.5763C76.4706 10.1337 76.2313 9.71542 75.941 9.33167C75.7056 10.6357 75.0105 11.818 73.9764 12.6735C72.9423 13.5291 71.6343 14.0038 70.2795 14.0153C69.3406 14.0092 68.4194 13.7653 67.6057 13.3075C67.6461 13.557 67.7046 13.8034 67.7807 14.0448C68.2998 15.726 70.0079 16.3336 71.5289 16.7406C72.1089 16.9434 72.7247 17.0297 73.3396 16.9942C73.9415 16.8751 74.4987 16.5978 74.9511 16.192C76.9972 14.5875 77.6732 12.9771 76.6532 10.5763Z" fill="#300D33"/>
<path d="M75.7661 60.5092C75.5307 59.9842 74.909 58.8398 74.3598 58.657C74.0459 58.5567 74.0459 57.9314 73.7562 57.9668C73.3277 58.014 72.9172 58.1261 72.5491 57.7426C72.4403 57.5862 72.3192 57.4383 72.1869 57.3002C72.111 57.2191 72.0172 57.1557 71.9127 57.1149C71.8082 57.074 71.6956 57.0567 71.5834 57.0643C71.2937 57.1115 71.1005 57.4772 70.841 57.1587C70.4909 56.7221 69.7244 57.0584 69.4467 57.3828C69.3637 57.4746 69.289 57.5733 69.2234 57.6778C68.0646 57.5952 66.5496 59.0699 65.9521 59.7306C65.388 60.4 65.015 61.2032 64.8708 62.0588C64.7267 62.9145 64.8165 63.7922 65.1312 64.603C65.777 66.5378 67.8352 67.2162 69.664 67.6645C70.3776 67.9026 71.1332 67.9969 71.8851 67.9418C72.6006 67.8012 73.265 67.4775 73.8105 67.0038C76.2007 65.128 76.9853 63.2522 75.7661 60.5092Z" fill="#48264C"/>
<path d="M75.7664 60.5098C75.5428 59.9966 75.2505 59.5145 74.8972 59.0764C74.594 60.6104 73.7556 61.994 72.525 62.9913C71.2944 63.9885 69.7479 64.5375 68.1493 64.5446C67.0238 64.5463 65.9158 64.2725 64.9263 63.7483C64.9743 64.0388 65.047 64.3249 65.1436 64.6036C65.7894 66.5384 67.8475 67.2168 69.6764 67.6651C70.39 67.9032 71.1456 67.9975 71.8975 67.9424C72.6129 67.8018 73.2773 67.4781 73.8229 67.0045C76.2009 65.1286 76.9856 63.2528 75.7664 60.5098Z" fill="#300D33"/>
<path d="M48.4731 56.2626C48.4731 56.2626 50.0847 55.6728 51.0202 57.755C51.9557 59.8373 52.2937 61.8842 53.2293 62.8575C53.4864 63.0761 53.6891 63.3491 53.8219 63.6557C53.9547 63.9624 54.0142 64.2947 53.9958 64.6272C53.9958 64.6272 51.3582 63.2174 50.6822 62.4682C49.6791 61.4505 48.8204 60.3057 48.1291 59.0646C47.3686 57.5663 46.8314 56.1624 46.8314 56.1624L48.4731 56.2626Z" fill="#5F825C"/>
<path d="M47.8392 55.8963C47.8392 55.8963 48.2436 54.2624 46.0285 53.5958C43.8134 52.9292 41.6828 52.8289 40.5964 52.0326C40.3421 51.8059 40.0377 51.6395 39.7069 51.5464C39.3761 51.4533 39.0278 51.436 38.6891 51.4958C38.6891 51.4958 40.4213 53.8966 41.2603 54.4452C42.4117 55.299 43.6742 55.9992 45.0145 56.5275C46.62 57.1174 48.1108 57.4595 48.1108 57.4595L47.8392 55.8963Z" fill="#5F825C"/>
<path d="M47.5256 56.6939C47.5256 56.6939 50.5012 58.7702 50.4167 61.5958C50.3322 64.4213 50.3322 65.8311 48.606 67.4061C46.8798 68.9811 43.5964 69.0696 41.8943 69.8129C40.1922 70.5561 38.1582 71.2286 37.6693 71.6415C37.1804 72.0544 36.1423 72.4732 34.6153 71.6415C33.0882 70.8098 32.201 70.8982 32.4907 68.5682C32.9238 65.5697 33.6639 62.6212 34.6998 59.7671C35.5448 57.6082 36.2932 55.9447 38.6833 55.284C40.9746 54.7085 43.3957 54.8825 45.5761 55.7795C47.079 56.5287 47.5256 56.6939 47.5256 56.6939Z" fill="#ED6366"/>
<path d="M32.8462 66.3209C34.1969 66.8169 35.6282 67.0707 37.0711 67.0701C42.9861 67.0701 47.7784 63.0058 47.7784 57.9976C47.78 57.5848 47.7477 57.1725 47.6819 56.7648C48.3217 57.2662 50.4643 59.1243 50.3919 61.531C50.3074 64.3507 50.3074 65.7664 48.5812 67.3414C46.855 68.9164 43.5716 69.0049 41.8695 69.7481C40.1674 70.4914 38.1334 71.1639 37.6445 71.5768C37.1556 71.9897 36.1175 72.4085 34.5905 71.5768C33.0634 70.745 32.1762 70.8276 32.4659 68.5035C32.5564 67.89 32.6832 67.1408 32.8462 66.3209Z" fill="#C73A54"/>
<path d="M48.8466 62.8868C49.251 62.9399 49.3476 62.2615 49.3778 61.766C49.4085 61.642 49.4085 61.5125 49.3778 61.3885V61.3472C49.3778 61.3 49.3114 61.2882 49.3054 61.3472C49.2917 61.3483 49.2785 61.3526 49.2669 61.3598C49.2554 61.367 49.2458 61.3769 49.239 61.3885C49.1665 61.5478 48.2853 62.8161 48.8466 62.8868Z" fill="#E7D8C8"/>
<path d="M48.0017 60.3271C48.0073 60.3344 48.0146 60.3404 48.023 60.3445C48.0314 60.3486 48.0406 60.3507 48.05 60.3507C48.0593 60.3507 48.0686 60.3486 48.077 60.3445C48.0853 60.3404 48.0926 60.3344 48.0983 60.3271C48.2168 60.2326 48.3127 60.114 48.3795 59.9795C48.4462 59.845 48.4821 59.6979 48.4845 59.5484C48.517 59.4674 48.5354 59.3817 48.5389 59.2948C48.5401 59.2824 48.5379 59.2699 48.5325 59.2586C48.5272 59.2473 48.5189 59.2375 48.5085 59.2304C48.4981 59.2232 48.486 59.2188 48.4733 59.2177C48.4606 59.2166 48.4478 59.2187 48.4363 59.224C48.4363 59.224 48.3638 59.224 48.3699 59.224C48.1969 59.3461 48.0681 59.5187 48.002 59.7169C47.9358 59.9152 47.9357 60.1288 48.0017 60.3271Z" fill="#E7D8C8"/>
<path d="M46.2576 58.9867C46.6077 59.2581 46.7706 58.6387 46.8612 58.2317C46.9128 58.1086 46.9493 57.9799 46.9698 57.8483C46.9713 57.8334 46.9678 57.8184 46.96 57.8055C46.9521 57.7926 46.9403 57.7825 46.9262 57.7766C46.9121 57.7707 46.8965 57.7693 46.8816 57.7727C46.8666 57.776 46.8531 57.7839 46.8431 57.7952C46.6741 57.9899 45.9136 58.739 46.2576 58.9867Z" fill="#E7D8C8"/>
<path d="M46.0344 61.6186C46.0395 61.6248 46.0459 61.6297 46.0533 61.6331C46.0606 61.6365 46.0686 61.6383 46.0767 61.6383C46.0848 61.6383 46.0928 61.6365 46.1001 61.6331C46.1074 61.6297 46.1138 61.6248 46.1189 61.6186C46.2342 61.509 46.3355 61.3862 46.4207 61.2529C46.6307 61.0226 46.7616 60.7338 46.7949 60.4271C46.7949 60.3799 46.7466 60.3209 46.6923 60.3445L46.5836 60.4153C46.1974 60.6925 45.7387 61.2293 46.0344 61.6186Z" fill="#E7D8C8"/>
<path d="M46.6375 64.2562C46.8608 64.3919 46.9936 64.0793 47.066 63.7548C47.1647 63.5892 47.2226 63.4034 47.235 63.2121C47.2362 63.1997 47.234 63.1873 47.2287 63.1759C47.2234 63.1646 47.2151 63.1549 47.2047 63.1477C47.1943 63.1405 47.1821 63.1362 47.1694 63.1351C47.1567 63.1339 47.144 63.1361 47.1324 63.1413H47.06C47.06 63.1413 47.06 63.1413 47.06 63.1826C46.9012 63.342 46.7761 63.5304 46.6918 63.7371C46.6315 63.8728 46.4745 64.1677 46.6375 64.2562Z" fill="#E7D8C8"/>
<path d="M47.7785 65.7179C48.02 65.8713 48.2735 65.653 48.3821 65.4406C48.4418 65.296 48.4863 65.1458 48.5149 64.9923C48.5868 64.8737 48.6302 64.7405 48.6416 64.603C48.6561 64.5878 48.6641 64.5678 48.6641 64.547C48.6641 64.5262 48.6561 64.5062 48.6416 64.491V64.4497C48.6416 64.4025 48.5632 64.3553 48.5149 64.3966C48.3157 64.5381 47.4104 65.476 47.7785 65.7179Z" fill="#E7D8C8"/>
<path d="M45.4371 66.5318C45.6424 66.809 45.8415 66.5318 45.9804 66.2604C46.0655 66.1865 46.1332 66.0956 46.1791 65.9938C46.2249 65.892 46.2477 65.7817 46.2459 65.6705C46.2457 65.6601 46.2429 65.6498 46.2378 65.6407C46.2326 65.6315 46.2253 65.6237 46.2164 65.618C46.2075 65.6122 46.1973 65.6086 46.1867 65.6074C46.1761 65.6063 46.1654 65.6077 46.1554 65.6115C45.8717 65.7177 45.1836 66.1896 45.4371 66.5318Z" fill="#E7D8C8"/>
<path d="M44.3013 63.1168C44.4763 62.9099 44.6794 62.7273 44.9049 62.5741C44.9172 62.5645 44.9321 62.5587 44.9478 62.5575C44.9635 62.5563 44.9792 62.5597 44.9929 62.5674C45.0066 62.575 45.0176 62.5865 45.0245 62.6003C45.0314 62.6141 45.0339 62.6297 45.0316 62.6449C45.0253 62.7327 45.0028 62.8186 44.9652 62.8986V62.987C44.9346 63.2336 44.8296 63.4656 44.6635 63.6536C44.5367 63.7952 44.241 63.866 44.1203 63.6536C43.9995 63.4413 44.1927 63.2171 44.3013 63.1168Z" fill="#E7D8C8"/>
<path d="M43.964 61.0352C44.0122 61.2181 44.2537 61.2004 44.3744 61.106C44.4551 61.0346 44.5207 60.9485 44.5675 60.8524C44.6797 60.718 44.7471 60.5534 44.7606 60.3805C44.7612 60.3673 44.7586 60.3542 44.7529 60.3423C44.7472 60.3304 44.7387 60.3199 44.7281 60.3118C44.7175 60.3037 44.705 60.2983 44.6918 60.2958C44.6785 60.2934 44.6649 60.2941 44.652 60.2979C44.4803 60.3639 44.3271 60.4691 44.2054 60.6046C44.0967 60.7049 43.9157 60.8701 43.964 61.0352Z" fill="#E7D8C8"/>
<path d="M45.0022 56.629C45.0222 56.623 45.0438 56.6245 45.0628 56.6332C45.0817 56.6419 45.0967 56.6572 45.1048 56.6761C45.1502 56.8521 45.1425 57.0371 45.0825 57.2088C45.0225 57.3805 44.9128 57.5315 44.7668 57.6435C44.7554 57.6517 44.7423 57.6572 44.7284 57.6595C44.7145 57.6618 44.7003 57.6609 44.6868 57.6569C44.6733 57.6529 44.661 57.6459 44.6508 57.6364C44.6405 57.6269 44.6327 57.6152 44.628 57.6023C44.6095 57.5609 44.5973 57.5172 44.5918 57.4725C44.5366 57.3073 44.5484 57.1276 44.6248 56.9707C44.7011 56.8137 44.8362 56.6914 45.0022 56.629Z" fill="#E7D8C8"/>
<path d="M42.9194 59.8726C43.1004 60.0201 43.2513 59.8726 43.36 59.6367C43.4979 59.5024 43.5994 59.3366 43.6552 59.1542C43.7111 58.9719 43.7196 58.7789 43.6798 58.5926C43.6717 58.5761 43.6587 58.5623 43.6427 58.5529C43.6266 58.5435 43.608 58.5388 43.5893 58.5395C43.3177 58.5749 43.0884 58.9465 42.9857 59.1294C42.8831 59.3122 42.69 59.6957 42.9194 59.8726Z" fill="#E7D8C8"/>
<path d="M42.8534 56.4856C42.8885 56.4435 42.9268 56.404 42.9681 56.3676C42.9817 56.3584 42.9975 56.3527 43.0139 56.3512C43.0304 56.3496 43.047 56.3522 43.0622 56.3587C43.0773 56.3652 43.0905 56.3754 43.1004 56.3884C43.1104 56.4013 43.1168 56.4165 43.119 56.4325C43.136 56.5689 43.1209 56.7073 43.0749 56.8371C43.0289 56.967 42.9531 57.0848 42.8534 57.1817C42.8545 57.1974 42.8545 57.2132 42.8534 57.2289C42.835 57.2651 42.8074 57.2961 42.7733 57.3189C42.7391 57.3417 42.6996 57.3555 42.6584 57.3591C42.6172 57.3626 42.5757 57.3558 42.538 57.3392C42.5003 57.3226 42.4676 57.2968 42.443 57.2643C42.1834 57.0047 42.5516 56.6272 42.8534 56.4856Z" fill="#E7D8C8"/>
<path d="M40.8011 58.6458C40.9217 58.4013 41.1125 58.1963 41.3503 58.056C41.3641 58.0462 41.3805 58.0406 41.3975 58.0401C41.4145 58.0395 41.4312 58.044 41.4456 58.053C41.4599 58.0619 41.4712 58.0748 41.4779 58.0901C41.4846 58.1053 41.4864 58.1222 41.4831 58.1385C41.4757 58.2483 41.4492 58.356 41.4047 58.4571C41.4047 58.4925 41.4047 58.5279 41.4047 58.5574C41.3916 58.6879 41.3633 58.8166 41.3202 58.9408C41.2814 59.061 41.1972 59.1622 41.0848 59.2239C41.0764 59.2387 41.0642 59.251 41.0493 59.2595C41.0345 59.2681 41.0175 59.2726 41.0003 59.2726C40.983 59.2726 40.9661 59.2681 40.9512 59.2595C40.9364 59.251 40.9241 59.2387 40.9158 59.2239C40.6804 59.1 40.7528 58.7933 40.8011 58.6458Z" fill="#E7D8C8"/>
<path d="M40.3721 57.2182C40.3819 57.2246 40.3935 57.228 40.4053 57.228C40.4171 57.228 40.4286 57.2246 40.4385 57.2182C40.519 57.1432 40.5936 57.0623 40.6618 56.9764C40.8141 56.8519 40.9429 56.7021 41.042 56.534C41.0833 56.4602 41.1002 56.3757 41.0903 56.2921V56.2508C41.0903 56.2096 41.0903 56.1801 41.03 56.1978C41.0075 56.1711 40.9787 56.1501 40.9461 56.1368C40.9135 56.1234 40.8781 56.118 40.8429 56.1211C40.4385 56.127 40.0159 56.9292 40.3721 57.2182Z" fill="#E7D8C8"/>
<path d="M37.9345 57.9562C38.0552 58.1803 38.3389 57.9562 38.4415 57.8323C38.6059 57.6466 38.72 57.4235 38.7734 57.1834C38.8156 57.103 38.8383 57.0142 38.8398 56.9239C38.8417 56.9108 38.8405 56.8975 38.8364 56.8849C38.8323 56.8723 38.8253 56.8608 38.8161 56.8512C38.8068 56.8416 38.7955 56.8341 38.7829 56.8293C38.7703 56.8246 38.7567 56.8226 38.7433 56.8236C38.6023 56.8431 38.4684 56.8964 38.3536 56.9788C38.2388 57.0611 38.1467 57.1699 38.0854 57.2955C37.9827 57.4666 37.8258 57.7556 37.9345 57.9562Z" fill="#E7D8C8"/>
<path d="M38.5318 60.3273C38.6042 60.5102 38.7973 60.4217 38.8698 60.3273C38.9422 60.2329 38.9362 60.2034 38.9663 60.1445C39.0858 60.0168 39.1705 59.8618 39.2127 59.6938C39.2549 59.5258 39.2532 59.3501 39.2078 59.1829C39.2036 59.1717 39.1968 59.1615 39.1879 59.1533C39.179 59.1451 39.1683 59.139 39.1565 59.1356C39.1448 59.1321 39.1324 59.1314 39.1203 59.1335C39.1083 59.1356 39.0969 59.1404 39.087 59.1475C38.9179 59.2975 38.7858 59.4831 38.7008 59.6902C38.6283 59.8436 38.4473 60.115 38.5318 60.3273Z" fill="#E7D8C8"/>
<path d="M40.9882 61.3476C41.0527 61.0511 41.2214 60.786 41.465 60.5984C41.4757 60.5872 41.4893 60.5791 41.5044 60.5751C41.5195 60.571 41.5354 60.5712 41.5504 60.5754C41.5655 60.5797 41.579 60.588 41.5895 60.5993C41.6 60.6107 41.607 60.6246 41.6099 60.6397C41.62 60.7495 41.6056 60.8602 41.5676 60.9641C41.5525 61.0945 41.5013 61.2184 41.4194 61.3224C41.3374 61.4263 41.228 61.5064 41.1029 61.554H41.0425C41.0278 61.556 41.0128 61.5546 40.9987 61.5499C40.9846 61.5453 40.9718 61.5375 40.9613 61.5272C40.9508 61.5169 40.9428 61.5044 40.9381 61.4907C40.9333 61.4769 40.9319 61.4622 40.9339 61.4478L40.9882 61.3476Z" fill="#E7D8C8"/>
<path d="M42.7509 62.0431C42.7635 62.0351 42.7779 62.0302 42.7928 62.029C42.8078 62.0278 42.8228 62.0302 42.8366 62.036C42.8504 62.0419 42.8624 62.051 42.8717 62.0625C42.881 62.0741 42.8872 62.0877 42.8897 62.1021C42.8897 62.1021 42.8897 62.1021 42.8897 62.1434C42.8897 62.4738 42.6543 63.0047 42.2862 63.0341C42.2762 63.0358 42.266 63.0354 42.2561 63.033C42.2463 63.0306 42.2371 63.0262 42.2292 63.02C42.2212 63.0139 42.2146 63.0062 42.2099 62.9975C42.2052 62.9888 42.2024 62.9791 42.2017 62.9693C42.212 62.7835 42.2672 62.6028 42.3626 62.4418C42.4581 62.2809 42.5911 62.1443 42.7509 62.0431Z" fill="#E7D8C8"/>
<path d="M40.6804 63.116C40.756 63.0424 40.8412 62.9789 40.9339 62.9272C40.9822 62.9272 41.0667 62.9272 41.0667 62.9803C41.0547 63.2165 40.9561 63.4405 40.7891 63.6115C40.7199 63.7204 40.619 63.8067 40.4993 63.8592C40.4833 63.8651 40.4656 63.8647 40.4498 63.8581C40.4341 63.8515 40.4215 63.8392 40.4148 63.8238C40.4148 63.8238 40.4148 63.7825 40.4148 63.7589C40.4114 63.7434 40.4114 63.7273 40.4148 63.7117C40.3946 63.5979 40.4089 63.4808 40.4561 63.3749C40.5033 63.269 40.5813 63.179 40.6804 63.116Z" fill="#E7D8C8"/>
<path d="M39.093 61.4595C39.1177 61.4578 39.1421 61.4654 39.1612 61.4808C39.1803 61.4961 39.1926 61.5181 39.1956 61.542C39.2046 61.5928 39.2046 61.6447 39.1956 61.6954C39.207 61.7814 39.1989 61.8688 39.1717 61.9514C39.1446 62.034 39.0992 62.1097 39.0387 62.1732C38.9582 62.317 38.8337 62.4325 38.6826 62.5035C38.6464 62.5035 38.6041 62.5035 38.586 62.4622C38.4532 62.1555 38.6584 61.4536 39.093 61.4595Z" fill="#E7D8C8"/>
<path d="M36.3712 61.0883C36.3752 61.1006 36.3818 61.1119 36.3905 61.1215C36.3991 61.1312 36.4097 61.139 36.4216 61.1445C36.4334 61.1501 36.4463 61.1532 36.4595 61.1536C36.4726 61.1541 36.4857 61.152 36.4979 61.1473C36.685 61.0619 36.8363 60.9162 36.9264 60.7347C37.0165 60.5532 37.04 60.3469 36.9929 60.1504C36.9872 60.1382 36.9789 60.1273 36.9686 60.1184C36.9583 60.1096 36.9461 60.103 36.933 60.0991C36.9199 60.0952 36.906 60.094 36.8924 60.0958C36.8788 60.0975 36.8657 60.1021 36.854 60.1091C36.7176 60.203 36.6025 60.3235 36.5161 60.4631C36.4437 60.549 36.3929 60.6503 36.3678 60.7589C36.3426 60.8675 36.3438 60.9803 36.3712 61.0883Z" fill="#E7D8C8"/>
<path d="M36.6369 63.3651C36.636 63.2438 36.6693 63.1245 36.7332 63.0205C36.7971 62.9164 36.889 62.8316 36.999 62.7753C37.0124 62.7695 37.0271 62.767 37.0417 62.768C37.0563 62.7691 37.0705 62.7735 37.083 62.7811C37.0954 62.7886 37.1059 62.799 37.1133 62.8114C37.1208 62.8237 37.125 62.8376 37.1257 62.8519C37.1422 62.9692 37.13 63.0886 37.0901 63.2004C37.0503 63.3121 36.9839 63.4131 36.8964 63.4949C36.8704 63.5302 36.8376 63.5603 36.7998 63.5834C36.7884 63.5895 36.7758 63.5932 36.7629 63.5944C36.7499 63.5956 36.7368 63.5943 36.7244 63.5904C36.712 63.5865 36.7005 63.5803 36.6907 63.572C36.6808 63.5637 36.6728 63.5535 36.667 63.5421C36.6642 63.5356 36.6628 63.5285 36.6628 63.5214C36.6628 63.5144 36.6642 63.5073 36.667 63.5008C36.6507 63.4571 36.6405 63.4115 36.6369 63.3651Z" fill="#E7D8C8"/>
<path d="M42.1658 64.2204C42.1766 64.2196 42.1875 64.221 42.1977 64.2245C42.2079 64.228 42.2173 64.2335 42.2252 64.2407C42.2332 64.2479 42.2395 64.2566 42.2438 64.2664C42.2481 64.2761 42.2503 64.2865 42.2503 64.2971C42.2496 64.4544 42.2033 64.6083 42.1168 64.7409C42.0303 64.8735 41.907 64.9794 41.7614 65.0463C41.7418 65.0522 41.7207 65.0522 41.7011 65.0463H41.6166C41.6069 65.048 41.5969 65.0477 41.5874 65.0452C41.5779 65.0427 41.5691 65.0382 41.5616 65.032C41.5541 65.0258 41.5481 65.018 41.544 65.0093C41.54 65.0005 41.5379 64.991 41.5381 64.9814C41.5713 64.8141 41.6458 64.6573 41.7552 64.5247C41.8646 64.3921 42.0056 64.2876 42.1658 64.2204Z" fill="#E7D8C8"/>
<path d="M42.8054 65.8654C42.8036 65.8812 42.8058 65.8972 42.812 65.9119C42.8181 65.9266 42.828 65.9396 42.8406 65.9496C42.8533 65.9596 42.8683 65.9663 42.8843 65.9691C42.9003 65.9719 42.9168 65.9707 42.9322 65.9656H42.9744C42.9834 65.9715 42.9939 65.9746 43.0046 65.9746C43.0154 65.9746 43.0259 65.9715 43.0348 65.9656L43.0771 65.9244C43.1943 65.8442 43.2937 65.7418 43.3694 65.6232C43.4451 65.5046 43.4956 65.3723 43.5177 65.2342C43.5199 65.2206 43.5184 65.2067 43.5132 65.1939C43.5081 65.1811 43.4995 65.1699 43.4884 65.1614C43.4773 65.153 43.464 65.1476 43.4501 65.1459C43.4361 65.1441 43.4219 65.1461 43.409 65.1516C43.216 65.2394 43.0557 65.3837 42.9503 65.5645C42.8817 65.6542 42.8324 65.7565 42.8054 65.8654Z" fill="#E7D8C8"/>
<path d="M42.4486 67.9428C42.5251 67.7853 42.6364 67.6463 42.7745 67.5358C42.8332 67.4729 42.8978 67.4156 42.9677 67.3648C42.9873 67.3585 43.0084 67.3585 43.028 67.3648C43.0403 67.3551 43.0553 67.3493 43.071 67.3481C43.0867 67.3469 43.1024 67.3504 43.116 67.358C43.1297 67.3656 43.1407 67.3771 43.1476 67.3909C43.1545 67.4048 43.157 67.4203 43.1548 67.4355C43.1314 67.5753 43.0671 67.7054 42.9696 67.8101C42.8721 67.9148 42.7456 67.9896 42.6055 68.0254H42.5572C42.5446 68.0338 42.5295 68.038 42.5143 68.0375C42.499 68.0369 42.4843 68.0317 42.4723 68.0226C42.4603 68.0134 42.4515 68.0008 42.4472 67.9865C42.443 67.9722 42.4434 67.9569 42.4486 67.9428Z" fill="#E7D8C8"/>
<path d="M40.4931 66.9275C40.4985 66.842 40.5229 66.7586 40.5646 66.6832C40.6063 66.6078 40.6643 66.5422 40.7346 66.491C40.8279 66.397 40.9442 66.328 41.0726 66.2904C41.1269 66.2904 41.1993 66.2904 41.1993 66.3612C41.1898 66.5289 41.1264 66.6894 41.018 66.8197C40.9096 66.95 40.7618 67.0435 40.5957 67.0868C40.583 67.0884 40.5701 67.0876 40.5578 67.0843C40.5454 67.081 40.5338 67.0754 40.5237 67.0677C40.5136 67.06 40.5052 67.0505 40.4989 67.0395C40.4926 67.0286 40.4886 67.0166 40.4871 67.0042C40.4812 66.9994 40.4765 66.9932 40.4735 66.9863C40.4705 66.9794 40.4693 66.9718 40.4699 66.9643C40.4705 66.9568 40.4729 66.9496 40.4769 66.9432C40.481 66.9367 40.4865 66.9314 40.4931 66.9275Z" fill="#E7D8C8"/>
<path d="M39.0992 64.5096H39.1475C39.1669 64.5021 39.1879 64.4993 39.2087 64.5012C39.2294 64.5031 39.2495 64.5098 39.2671 64.5207C39.2847 64.5317 39.2995 64.5465 39.3102 64.564C39.3208 64.5816 39.3271 64.6013 39.3285 64.6217C39.2923 64.9225 39.0328 65.3118 38.725 65.3295C38.6767 65.3295 38.6103 65.2942 38.6164 65.2411C38.614 65.0862 38.6585 64.9341 38.7445 64.8039C38.8304 64.6737 38.9538 64.5713 39.0992 64.5096Z" fill="#E7D8C8"/>
<path d="M38.1214 67.2464C38.2438 67.071 38.4188 66.9371 38.6223 66.863C38.6381 66.8566 38.6552 66.8543 38.6721 66.8565C38.689 66.8587 38.705 66.8652 38.7185 66.8754C38.732 66.8856 38.7425 66.8991 38.7489 66.9145C38.7554 66.9299 38.7575 66.9468 38.7551 66.9633C38.6433 67.3069 38.4015 67.596 38.0791 67.7714C38.0655 67.7821 38.0492 67.7891 38.0318 67.7915C38.0145 67.7939 37.9968 67.7916 37.9807 67.7849C37.9646 67.7783 37.9506 67.7675 37.9403 67.7536C37.93 67.7398 37.9237 67.7235 37.9222 67.7065C37.9162 67.6199 37.9311 67.5332 37.9657 67.4533C38.0003 67.3734 38.0536 67.3025 38.1214 67.2464Z" fill="#E7D8C8"/>
<path d="M36.5279 65.3585C36.5323 65.2396 36.5666 65.1237 36.6276 65.0208C36.6887 64.9179 36.7746 64.8313 36.878 64.7686C36.9263 64.7686 37.0168 64.7686 37.0349 64.8098C37.057 64.966 37.033 65.125 36.9656 65.2682C36.8982 65.4114 36.7903 65.5328 36.6546 65.618C36.6375 65.6314 36.6166 65.6394 36.5946 65.641C36.5727 65.6425 36.5508 65.6376 36.5319 65.6267C36.5129 65.6158 36.4977 65.5996 36.4884 65.5801C36.4791 65.5607 36.476 65.5389 36.4796 65.5177C36.4923 65.4637 36.5085 65.4105 36.5279 65.3585Z" fill="#E7D8C8"/>
<path d="M35.0067 63.5244C35.0263 63.4542 35.0687 63.3921 35.1275 63.3474L35.1637 63.3062C35.2059 63.2531 35.3206 63.2708 35.3206 63.3474C35.3165 63.4762 35.2746 63.6011 35.1999 63.7073C35.1958 63.7849 35.1748 63.8609 35.1384 63.93C35.102 63.9992 35.0509 64.06 34.9886 64.1084C34.9772 64.1156 34.964 64.1197 34.9504 64.1205C34.9368 64.1212 34.9233 64.1184 34.9111 64.1125C34.8989 64.1065 34.8885 64.0976 34.881 64.0865C34.8734 64.0755 34.8689 64.0627 34.8679 64.0494C34.8524 63.8641 34.9013 63.6791 35.0067 63.5244Z" fill="#E7D8C8"/>
<path d="M36.5097 58.4278L36.5881 58.3275C36.6304 58.2862 36.727 58.3275 36.727 58.3688C36.7383 58.4864 36.7219 58.605 36.679 58.7155C36.6361 58.8259 36.5678 58.9253 36.4795 59.0059V59.0413C36.4702 59.0499 36.4588 59.0561 36.4463 59.059C36.4339 59.0619 36.4209 59.0616 36.4086 59.058C36.3963 59.0544 36.3852 59.0477 36.3765 59.0385C36.3677 59.0294 36.3616 59.0181 36.3588 59.0059C36.3528 58.9688 36.3528 58.9309 36.3588 58.8938C36.3343 58.8102 36.3356 58.7215 36.3624 58.6386C36.3892 58.5557 36.4405 58.4824 36.5097 58.4278Z" fill="#E7D8C8"/>
<path d="M35.7854 68.1491C35.7917 68.1602 35.8009 68.1694 35.812 68.1758C35.8232 68.1823 35.8359 68.1856 35.8488 68.1856C35.8617 68.1856 35.8744 68.1823 35.8856 68.1758C35.8967 68.1694 35.9059 68.1602 35.9122 68.1491L35.9605 68.096C36.0827 68.0028 36.1831 67.8851 36.255 67.7508C36.3268 67.6165 36.3684 67.4687 36.3769 67.3174C36.3784 67.3009 36.3752 67.2844 36.3676 67.2696C36.36 67.2548 36.3483 67.2424 36.3338 67.2339C36.3194 67.2253 36.3027 67.2208 36.2858 67.221C36.2689 67.2211 36.2524 67.2259 36.2381 67.2348C35.9786 67.4177 35.6707 67.8365 35.7854 68.1491Z" fill="#E7D8C8"/>
<path d="M34.3429 66.9102C34.3577 66.8329 34.398 66.7624 34.4576 66.7096C34.4808 66.6707 34.5092 66.635 34.5421 66.6034C34.551 66.5913 34.5628 66.5813 34.5765 66.5745C34.5901 66.5677 34.6052 66.5641 34.6206 66.5641C34.6359 66.5641 34.651 66.5677 34.6647 66.5745C34.6783 66.5813 34.6901 66.5913 34.699 66.6034C34.747 66.733 34.747 66.875 34.699 67.0046C34.6671 67.1378 34.5957 67.2588 34.4938 67.3526C34.484 67.3598 34.4726 67.3646 34.4605 67.3667C34.4485 67.3687 34.4361 67.368 34.4244 67.3646C34.4126 67.3611 34.4019 67.3551 34.393 67.3468C34.3841 67.3386 34.3773 67.3285 34.3731 67.3172C34.338 67.2556 34.3172 67.1873 34.312 67.117C34.3068 67.0467 34.3173 66.9761 34.3429 66.9102Z" fill="#E7D8C8"/>
<path d="M34.5906 68.9214C34.6036 68.9118 34.6191 68.9058 34.6353 68.9041C34.6515 68.9024 34.668 68.905 34.6828 68.9116C34.6977 68.9183 34.7104 68.9287 34.7197 68.9419C34.7289 68.955 34.7344 68.9704 34.7354 68.9863C34.7507 69.1285 34.7344 69.2722 34.6875 69.4076C34.6406 69.543 34.5643 69.6669 34.4638 69.7708C34.4638 69.7708 34.4638 69.8062 34.4638 69.818C34.4579 69.832 34.4478 69.8439 34.4349 69.8523C34.422 69.8607 34.4069 69.8652 34.3914 69.8652C34.3759 69.8652 34.3608 69.8607 34.3479 69.8523C34.335 69.8439 34.3249 69.832 34.319 69.818C34.2788 69.6585 34.2828 69.4913 34.3305 69.3337C34.3782 69.1762 34.468 69.0339 34.5906 68.9214Z" fill="#E7D8C8"/>
<path d="M36.8177 69.7888C36.8379 69.7831 36.8595 69.7841 36.8791 69.7916C36.8987 69.799 36.9153 69.8125 36.9263 69.83C36.9328 69.8397 36.9363 69.851 36.9363 69.8625C36.9363 69.874 36.9328 69.8853 36.9263 69.8949C36.9283 69.9086 36.9283 69.9225 36.9263 69.9362C36.9256 70.0512 36.8974 70.1644 36.844 70.2668C36.7905 70.3693 36.7133 70.458 36.6185 70.5261C36.6075 70.5344 36.5948 70.5401 36.5812 70.5429C36.5676 70.5456 36.5536 70.5452 36.5402 70.5418C36.5268 70.5384 36.5143 70.532 36.5039 70.5231C36.4934 70.5143 36.4851 70.5032 36.4797 70.4907C36.4769 70.4791 36.4769 70.467 36.4797 70.4553C36.4686 70.4564 36.4574 70.4549 36.4469 70.4511C36.4365 70.4472 36.4271 70.441 36.4195 70.433C36.4119 70.425 36.4063 70.4154 36.4031 70.405C36.4 70.3945 36.3993 70.3835 36.4012 70.3727C36.4167 70.2496 36.4627 70.132 36.5353 70.0302C36.6079 69.9284 36.7048 69.8455 36.8177 69.7888Z" fill="#E7D8C8"/>
<path d="M39.6905 68.367C39.7031 68.359 39.7175 68.3541 39.7324 68.3529C39.7474 68.3516 39.7624 68.354 39.7762 68.3599C39.79 68.3657 39.802 68.3748 39.8113 68.3864C39.8206 68.3979 39.8268 68.4115 39.8293 68.426C39.8353 68.6051 39.7876 68.782 39.6922 68.935C39.5968 69.088 39.4577 69.2104 39.2921 69.2873C39.263 69.2981 39.2307 69.2981 39.2016 69.2873L39.1292 69.3344C39.1184 69.3382 39.1069 69.3394 39.0955 69.3379C39.0842 69.3364 39.0734 69.3324 39.064 69.326C39.0545 69.3197 39.0468 69.3113 39.0413 69.3015C39.0359 69.2917 39.0329 69.2807 39.0326 69.2696C39.0582 69.078 39.1317 68.8955 39.2464 68.7381C39.3611 68.5807 39.5136 68.4533 39.6905 68.367Z" fill="#E7D8C8"/>
<path d="M44.5915 67.9594C44.604 67.9318 44.6202 67.906 44.6398 67.8827C44.6301 67.8399 44.6301 67.7957 44.6398 67.7529C44.7078 67.6246 44.8185 67.5226 44.9537 67.4639C45.0019 67.4639 45.0683 67.4639 45.0864 67.4993C45.1104 67.5822 45.1104 67.67 45.0864 67.7529C45.0674 67.8488 45.0121 67.9342 44.9316 67.9921C44.8511 68.05 44.7512 68.0762 44.6519 68.0655C44.6306 68.0576 44.6129 68.0426 44.6019 68.0232C44.5908 68.0038 44.5872 67.9812 44.5915 67.9594Z" fill="#E7D8C8"/>
</g>
<defs>
<clipPath id="clip0_820_2918">
<rect width="116" height="80" fill="white"/>
</clipPath>
</defs>
</svg>
